CoelacanthPearlHairline.sfdir
StartChar: asterisk
Encoding: 42 42 188
Width: 418
Flags: HW
LayerCount: 2
Fore
SplineSet
216 432 m 1
 128.368164062 297.838867188 l 1
 111.545898438 303.96875 96.7158203125 317.565429688 84.017578125 333.76953125 c 1
 168.629882812 463.520507812 l 1
 13.955078125 505.405273438 l 1
 14.5869140625 523.297851562 22.9345703125 541.604492188 34.421875 558.688476562 c 1
 183.969726562 518.3125 l 1
 176.006835938 678.360351562 l 1
 193.21875 683.288085938 213.208984375 681.005859375 233.006835938 675.360351562 c 1
 240.8203125 520.655273438 l 1
 390.573242188 577.685546875 l 1
 400.579101562 562.838867188 404.5859375 543.122070312 405.333984375 522.548828125 c 1
 260.615234375 467.310546875 l 1
 361.130859375 342.510742188 l 1
 350.102539062 328.407226562 332.588867188 318.502929688 313.25390625 311.434570312 c 1
 216 432 l 1
EndSplineSet
EndChar
StartChar: zero
Encoding: 48 48 2271
Width: 573
Flags: HW
LayerCount: 2
Fore
SplineSet
285 452 m 3
 153.199959021 452 107 321.679849683 107 260 c 3
 107 132.332346797 170.778916089 44 297 44 c 3
 403.627257107 44 466 155.615268371 466 252 c 3
 466 347.037222272 414.765439742 452 285 452 c 3
285 508 m 3
 456 508 522 364 522 252 c 3
 522 140 449 -12 297 -12 c 3
 134 -12 51 112 51 260 c 3
 51 336 107 508 285 508 c 3
EndSplineSet
Substitution2: "'zero' Slashed Zero lookup 22-1" zero.alt
Substitution2: "dnom-1" zero.denom
Substitution2: "numr-1" zero.numerator
Substitution2: "lnum-1" zero.proportionallining
Substitution2: "tnum-1" zero.tabulartext
EndChar
StartChar: six
Encoding: 54 54 723
Width: 603
Flags: HW
LayerCount: 2
Fore
SplineSet
384.50390625 676.78515625 m 1
 404 624 l 1
 215.879054014 523.540110514 142.697210693 402.695695489 142.697210693 243.2464 c 3
 142.697210693 158.965839674 188.097108553 41.9462890625 306.094726562 41.9462890625 c 3
 399.585066965 41.9462890625 471.25895 116.380400809 471.25895 197.19295 c 3
 471.25895 296.967187461 410.983989853 364.6649 340.65616538 364.6649 c 3
 307.605694113 364.6649 286.193356761 355.110957389 266.340820312 338.267578125 c 1
 236 380 l 1
 259.091925588 403.091277247 294.738793564 420.6649 340.65616538 420.6649 c 3
 451.377766314 420.6649 527.25895 317.15653757 527.25895 197.19295 c 3
 527.25895 83.5442871556 429.117813409 -14.0537109375 306.094726562 -14.0537109375 c 3
 140.049576265 -14.0537109375 86.6972106934 148.401635974 86.6972106934 243.2464 c 3
 86.6972106934 429.875601966 178.368542246 570.111394591 384.50390625 676.78515625 c 1
EndSplineSet
Substitution2: "dnom-1" six.denom
Substitution2: "numr-1" six.numerator
Substitution2: "tnum-1" six.tabulartext
Substitution2: "lnum-1" six.proportionallining
EndChar
StartChar: E
Encoding: 69 69 2326
Width: 683
Flags: HW
AnchorPoint: "Top" 349 679 basechar 0
AnchorPoint: "Bottom" 340 -15 basechar 0
LayerCount: 2
Fore
SplineSet
85 684 m 1
 149 681 253 679 349 679 c 3
 452 679 546 681 570 687 c 1
 592 671 599 660 599 647 c 3
 599 629 580 605 578 543 c 1
 524 547 l 1
 517 575 544 628 528 627 c 0
 487 623 396 623 318 623 c 3
 276 623 237 623 213 623 c 0
 205 623 199 619 199 608 c 0
 198 536 200 433 199 366 c 1
 244 368 469 367 474 368 c 0
 483 369 483 397 494 429 c 1
 547 419 l 1
 539 387 535 357 535 327 c 3
 535 307 538 286 543 262 c 1
 493 248 l 1
 476 291 485 312 477 312 c 0
 443 311 255 311 199 311 c 1
 199 221 198 132 199 72 c 0
 199 57 206 54 212 54 c 0
 260 58 342 56 377 56 c 1
 415 56 499 56 533 55 c 0
 552 55 555 96 568 141 c 1
 622 126 l 1
 607 65 603 57 591 0 c 1
 500 -3 404 1 313 1 c 3
 233 1 158 0 97 -14 c 1
 87 41 l 1
 125 49 143 49 143 57 c 1
 143 95 144 225 144 346 c 3
 144 482 143 607 143 619 c 0
 143 625 143 626 82 628 c 1
 85 684 l 1
EndSplineSet
Position2: "cpsp-1" dx=0 dy=0 dh=50 dv=100
Substitution2: "c2pc-1" e.pcap
Substitution2: "c2sc-1" e.smcp
EndChar
StartChar: L
Encoding: 76 76 2377
Width: 682
Flags: HW
AnchorPoint: "TopRight" 366.5 607.506 basechar 0
AnchorPoint: "Top" 207 679 basechar 0
AnchorPoint: "Bottom" 335 -15 basechar 0
LayerCount: 2
Fore
SplineSet
266 688 m 1
 279 635 l 1
 184 609 184 635 184 599 c 0
 184 542 184 178 183 162 c 1
 184 81 185 56 195 56 c 0
 279 57 508 56 549 55 c 0
 581 55 569 67 588 148 c 1
 643 142 l 1
 639 68 625 47 610 -15 c 1
 585 -7 578 -2 532 -1 c 0
 518 -1 426 1 319 1 c 1
 94 1 113 -4 67 -4 c 1
 62 51 l 1
 129 59 129 47 128 63 c 0
 128 74 128 178 128 303 c 3
 128 455 128 585 128 601 c 0
 128 632 128 612 55 633 c 1
 65 688 l 1
 95 679 128 675 159 675 c 3
 197 675 234 680 266 688 c 1
EndSplineSet
Position2: "cpsp-1" dx=0 dy=0 dh=50 dv=100
Substitution2: "c2pc-1" l.pcap
Substitution2: "c2sc-1" l.smcp
EndChar
StartChar: X
Encoding: 88 88 2479
Width: 690
Flags: HW
AnchorPoint: "Bottom" 342 -15 basechar 0
AnchorPoint: "Top" 340 679 basechar 0
LayerCount: 2
Fore
SplineSet
12 677 m 1
 58 675 94 673 121 673 c 3
 149 673 172 675 213 682 c 1
 219 627 l 1
 205 624 192 623 175 621 c 0
 174 621 171 616 178 606 c 1
 182 602 335 402 338 400 c 1
 357 428 460 572 490 615 c 0
 491 616 490 619 489 619 c 1
 481 620 460 622 452 624 c 1
 460 680 l 1
 486 675 510 673 535 673 c 3
 566 673 598 676 633 683 c 1
 639 627 l 1
 559 614 563 620 545 595 c 0
 537 584 514 549 373 353 c 1
 399 320 577 87 594 63 c 1
 604 51 600 60 682 45 c 1
 671 -11 l 1
 643 -4 610 0 575 0 c 3
 541 0 505 -5 479 -13 c 1
 471 42 l 1
 485 45 502 48 511 50 c 0
 528 54 526 60 520 68 c 0
 421 198 355 285 339 306 c 1
 278 218 204 117 165 63 c 1
 161 56 169 54 174 53 c 0
 185 51 205 50 216 48 c 1
 211 -7 l 1
 176 -3 147 0 119 0 c 3
 86 0 53 -2 14 -9 c 1
 9 47 l 1
 90 58 89 54 97 64 c 0
 104 73 140 121 304 352 c 1
 129 580 113 599 103 612 c 0
 96 620 89 615 11 621 c 1
 12 677 l 1
EndSplineSet
Position2: "cpsp-1" dx=0 dy=0 dh=50 dv=100
Substitution2: "c2pc-1" x.pcap
Substitution2: "c2sc-1" x.smcp
EndChar
StartChar: asciicircum
Encoding: 94 94 186
Width: 533
Flags: HW
LayerCount: 2
Fore
SplineSet
482 401 m 1
 433 374 l 1
 267 619 l 1
 101 374 l 1
 52 401 l 1
 251 696 l 1
 283 696 l 1
 482 401 l 1
EndSplineSet
EndChar
StartChar: w
Encoding: 119 119 2227
Width: 823
Flags: HMW
AnchorPoint: "Top" 410 537 basechar 0
AnchorPoint: "Bottom" 399 -15 basechar 0
LayerCount: 2
Fore
SplineSet
818 460 m 1
 754 439 762.570939365 447.083072573 757 417 c 0
 742 336 672.382994418 212.786997933 667 204 c 0
 621.669921875 130.004882812 594 72.3076171875 576 -10 c 1
 522 -10 l 1
 496.966233474 112.711425782 458.034092048 222.924207899 421 332 c 1
 405.550768229 302.726818111 365.480581813 217.527857266 342 167 c 0
 317.063387784 113.338911325 291.363636364 55.2484496381 272 -12 c 1
 227 -12 l 1
 208.90813236 124.181640625 115.840318112 328.232935352 69 424 c 0
 61.5458984375 439.240234375 64.0678196273 435.359250515 49 441.4921875 c 0
 34.2587890625 447.4921875 19.5166015625 449.4921875 4 454.4921875 c 1
 12 507.4921875 l 1
 37.0107421875 503.4921875 73.13671875 498.4921875 100 498.4921875 c 1
 128.911132812 498.4921875 148.42578125 502.4921875 173 508.4921875 c 1
 181 456 l 1
 165.286132812 450.221679688 142.780273438 443 131 443 c 0
 129 443 128 443 127 442 c 1
 127 440 126.545065077 437.890157287 127 437 c 0
 171 350.906542056 229.667043586 211.517133956 259 108 c 1
 291.566626711 186.309090909 353.638297872 316.109090909 398 403 c 1
 395.000292969 412.635742187 392.000585938 421.620014392 389 429 c 1
 388.09375 434.142578125 384.463570965 438.351200547 378 440 c 0
 365.244140625 443.25390625 352.799804688 446.328125 336 449.4921875 c 1
 344 503.4921875 l 1
 362.759765625 500.159179688 388.666015625 498.4921875 411 498.4921875 c 1
 434.43359375 498.4921875 458.518554688 504.206054688 480 508.4921875 c 1
 490 453.4921875 l 1
 478.434570312 449.62890625 462.739257812 447.192382812 452 444.4921875 c 1
 449 443.2421875 445 442.825195312 445 439.4921875 c 3
 445 433.4921875 446.710849307 428.539148884 449 421.4921875 c 0
 469.640001413 357.953647484 509.652473175 248.001437419 554 102 c 1
 593.472418891 198.385166598 673.142760604 291.596713421 699 414 c 0
 702.295876718 431.216882604 706 443 690 444 c 1
 683.455078125 445.737304688 686.625 444.352539062 636 452 c 1
 646 507 l 1
 670.444335938 502.5 704.666992188 498 723 498 c 1
 749.866210938 498 779.333007812 505.3125 801 511 c 1
 818 460 l 1
EndSplineSet
Substitution2: "case-1" W
Substitution2: "pcap-1" w.pcap
Substitution2: "smcp-1" w.smcp
EndChar
StartChar: uni007F
Encoding: 127 127 821
Width: 770
Flags: HW
LayerCount: 2
Fore
SplineSet
377 59 m 0
 401.873507609 59 456.5 114.201143973 456.5 137.75 c 0
 456.5 159.680153461 401.274227017 216.5 377 216.5 c 0
 350.724883829 216.5 298.25 158.694566408 298.25 137.75 c 0
 298.25 104.390482397 355.612661916 59 377 59 c 0
384.896 681.619 m 0
 572.009 681.619 732.391 534.6 732.391 347.494 c 0
 732.391 147.017 565.326 0 384.896 0 c 0
 197.787 0 37.4082 133.65 37.4082 334.125 c 0
 37.4082 534.598 204.47 681.619 384.896 681.619 c 0
339.5 258.326171875 m 1
 425.75 256.41015625 l 1
 425.75 352.854746533 438.177855264 400.527120673 447.400390625 490.461914062 c 0
 452.110497462 544.629974751 450.85786817 556.983444669 460.237304688 578.087890625 c 0
 463.408203125 585.22265625 l 1
 462.165039062 592.9296875 l 0
 456.937054866 625.342450714 423.458137066 626.729886677 409.465820312 624.39453125 c 0
 389.590703915 621.077320686 367.285896774 613.379011794 336.284179688 609.551757812 c 0
 314.162109375 606.8203125 l 1
 313.271484375 584.548828125 l 0
 311.371240866 537.04123658 330.760595352 515.010307923 332.831054688 490.681640625 c 0
 338.362232103 425.609294105 339.5 346.016876657 339.5 258.326171875 c 1
EndSplineSet
EndChar
StartChar: section
Encoding: 167 167 705
Width: 428
Flags: HW
LayerCount: 2
Fore
SplineSet
153.59375 538.224609375 m 1
 139.59375 499.224609375 132.59375 473.132609375 132.59375 430.224609375 c 3
 132.59375 265.699775143 272.48475 147.98229375 275.59375 33.224609375 c 1
 292.29275 69.004709375 305.59375 93.759309375 305.59375 135.224609375 c 3
 305.59375 303.187842662 175.30775 408.023738607 153.59375 538.224609375 c 1
75.59375 353.224609375 m 3
 75.59375 521.235609375 165.581214022 698.224609375 333.592773438 698.224609375 c 3
 369.311773437 698.224609375 393.592773437 679.099609375 411.592773438 647.224609375 c 1
 396.642101451 631.985143761 368.851196854 614.084501452 341 603 c 1
 320.975897177 626.667857588 307.778193044 658.224609375 277.59375 658.224609375 c 3
 242.424764211 658.224609375 219.592773438 618.970609375 219.592773438 578.224609375 c 3
 219.592773438 502.270609375 360.592773438 389.252609375 360.592773438 227.224609375 c 3
 360.592773438 86.096809375 265.476773437 -93.775390625 105.592773438 -93.775390625 c 3
 63.9109988537 -93.775390625 35.4914912216 -79.8969618059 10 -37 c 1
 9.6711831547 -28.1078093104 48.4274322329 4.9718726723 80 11 c 1
 101.556936892 -16.3429517 109.594900998 -60.775390625 141.592773438 -60.775390625 c 3
 179.269773438 -60.775390625 198.592773438 -20.4524872329 198.592773438 17.224609375 c 3
 198.592773438 101.438559248 75.59375 155.133627286 75.59375 353.224609375 c 3
EndSplineSet
Position2: "'case' vertical ajustments for all-caps-1" dx=0 dy=60 dh=0 dv=0
Position2: "cpsp-1" dx=0 dy=0 dh=50 dv=100
EndChar
StartChar: copyright
Encoding: 169 169 246
Width: 770
Flags: HW
LayerCount: 2
Fore
SplineSet
384.892578125 625.885742188 m 3
 233.822340728 625.885742188 93.9453125 502.786931416 93.9453125 334.92578125 c 3
 93.9453125 167.406137948 228.228731702 55.7333984375 384.892578125 55.7333984375 c 3
 535.966093808 55.7333984375 675.845703125 178.832940728 675.845703125 346.693359375 c 3
 675.845703125 503.04196684 541.559718584 625.885742188 384.892578125 625.885742188 c 3
384.896 681.619 m 3
 572.009 681.619 732.391 534.6 732.391 347.494 c 3
 732.391 147.017 565.326 0 384.896 0 c 3
 197.787 0 37.4082 133.65 37.4082 334.125 c 3
 37.4082 534.598 204.47 681.619 384.896 681.619 c 3
EndSplineSet
Refer: 207 99 N 0.88 0 0 0.88 165.743 120.327 2
EndChar
StartChar: paragraph
Encoding: 182 182 630
Width: 558
UnlinkRmOvrlpSave: 1
Flags: HW
LayerCount: 2
Fore
SplineSet
270.916015625 673 m 1
 329.700195312 681 l 1
 319.700195312 45 l 1
 262.916015625 57 l 1
 270.916015625 673 l 1
514.700195312 741 m 1
 516.700195312 683.868164062 l 1
 318 661 258 631 209.700195312 588.82421875 c 0
 184.697076561 566.991292636 157 545.861328125 157 295 c 3
 157 190.091796875 189.381533113 150.724735826 197.700195312 139.131835938 c 0
 229.306758384 95.0848831063 354.16748047 62.4675010293 448.047851562 47.1318359375 c 1
 438.700195312 -10 l 1
 227.348059741 33.9285855587 184.923604713 67.0216375774 128.700195312 131 c 0
 70.7001953125 197 26.091903553 278.498610671 25.7001953125 343 c 0
 25.6014772944 359.255591946 21.2998046875 370.966885604 21.2998046875 382.532226562 c 1
 21.2998046875 385.723904542 22.4685985991 393.197848545 24.7001953125 399 c 0
 54.7001953125 477 105.842800187 586.795342609 206.700195312 657 c 0
 308.700195312 728 514.700195312 741 514.700195312 741 c 1
EndSplineSet
Position2: "cpsp-1" dx=0 dy=0 dh=50 dv=100
EndChar
StartChar: Thorn
Encoding: 222 222 2445
Width: 594
Flags: HW
LayerCount: 2
Fore
SplineSet
189.073242188 226.958007812 m 1
 228.5625 225.396484375 249.3671875 223 290 223 c 3
 436 223 465 311 465 364 c 3
 465 424 404 519 288 519 c 3
 266.518554688 519 216.749023438 516.599609375 187.26171875 510.466796875 c 1
 185.9765625 417.948242188 187.340820312 313.534179688 189.073242188 226.958007812 c 1
300 652.244140625 m 1
 269.541015625 652.76953125 239.069335938 648.46484375 211 641 c 0
 193.498046875 636.344726562 190 622 189 604 c 0
 188.240234375 587.23828125 187.66015625 570.91015625 187.219726562 554.89453125 c 1
 223.961914062 557.525390625 259.918945312 561 309 561 c 3
 442 561 552 478 552 375 c 3
 552 258.262695312 417.193359375 178 292 178 c 3
 251.719726562 178 228.8125 181.861328125 189.141601562 182.9453125 c 1
 190.319335938 145.3203125 192.446289062 106.4140625 198 75 c 0
 201.80078125 58.8486328125 209.211914062 38.1826171875 306 36.1611328125 c 1
 302 -10.6103515625 l 1
 253.839897611 0.765337346976 217.431629665 6.17477902914 177.51514646 6.17477902914 c 3
 138.247715333 6.17477902914 95.5852303172 0.939824883774 35 -9 c 1
 25 26 l 1
 78 36 103 49 103 77 c 1
 104.6 108.20234375 105.4 187.70734375 105.4 277.3266875 c 3
 105.4 411.755703125 103.6 568.941992187 100 620 c 0
 99 647 85 647 12 661 c 1
 17 692 l 1
 64.3137479468 686.877828443 116.634803726 684.064503692 169.426581172 684.064503692 c 3
 212.805530712 684.064503692 256.502306442 685.964030206 298 690.04296875 c 1
 300 652.244140625 l 1
EndSplineSet
Position2: "cpsp-1" dx=0 dy=0 dh=50 dv=100
Substitution2: "c2pc-1" thorn.pcap
Substitution2: "c2sc-1" thorn.smcp
EndChar
StartChar: germandbls
Encoding: 223 223 386
Width: 601
Flags: HW
LayerCount: 2
Fore
SplineSet
298 749 m 3
 405.82001954 749 476 667.537974416 476 592 c 3
 476 504.773455875 362 420.089552239 362 377 c 3
 362 355.793103448 384.312575634 330.004917447 468 299 c 0
 567.456289188 262.152958056 599 207.246124805 599 151 c 3
 599 48.6338028169 506.409574468 -7 430 -7 c 3
 374 -7 332 6 291 19 c 1
 287 40 280.594368732 60.9408266935 277 87 c 0
 273 116 271 144 265 159 c 1
 321 175 l 1
 345 82 306.39782103 49 430 49 c 3
 480.924949413 49 543 89.4004398518 543 150 c 3
 543 191.854166667 525.279394425 215.666195296 444 248 c 0
 390.776978417 269.172682176 307 300 307 377 c 3
 307 457.024092889 420 523.991526032 420 591 c 3
 420 648 362.838170951 693 299 693 c 3
 253.822572008 693 184.661848961 655.206163203 157 563 c 0
 145 523 148 499.010256141 148 304 c 3
 148 225.618623454 148 112 148 70 c 0
 148 56.3326079759 147.968706064 56.5572738085 159 56 c 0
 183.75765162 54.7493043982 211.25 51.3333333333 236 49 c 1
 231 -7 l 1
 199.032894737 -2.55555555556 154.427631579 1 118 1 c 3
 87 1 39 -4 11 -7 c 1
 9 49 l 1
 26.3684210526 50.6666666667 46.2555770999 52.7325412214 64 54 c 0
 92 56 92 56 92 74 c 0
 92 131.319227378 92 211.333333333 92 280 c 3
 92 307.534318003 92 390.063694268 92 440 c 1
 66.1298701299 439 38.1038961039 438 9 437 c 1
 9 493 l 1
 37.0405405406 493.5 67.3243243243 495 92 496 c 1
 92 497.779661017 92 498.338983051 92 499 c 3
 92 579.172661871 126 653 176 698 c 0
 204.636695267 723.77302574 244.383333333 749 298 749 c 3
EndSplineSet
Substitution2: "pcap-1" uni1E9E.pcap
Substitution2: "case-1" uni1E9E
Substitution2: "smcp-1" uni1E9E.smcp
MultipleSubs2: "case-2" S S
EndChar
StartChar: Eogonek
Encoding: 280 280 2337
Width: 683
UnlinkRmOvrlpSave: 1
Flags: HW
AnchorPoint: "Top" 330 699 basechar 0
LayerCount: 2
Fore
SplineSet
85.2509765625 684.215820312 m 1
 149.500976562 681.030273438 252.91015625 679.139648438 348.677734375 679.139648438 c 0
 451.5625 679.139648438 545.676757812 681.123046875 569.581054688 687.215820312 c 1
 591.665039062 670.905273438 598.684570312 660.729492188 598.684570312 647.3359375 c 0
 598.684570312 629.392578125 580.731445312 604.849609375 578.490234375 543.140625 c 1
 524.244140625 547.313476562 l 1
 517.6796875 575.799804688 544.249454602 628.417451504 528 627 c 0
 486.835684929 623.409207464 395.783870978 622.787134111 318.000002512 622.787134111 c 0
 275.521506872 622.787134111 237.00005944 623.115158618 212.721679688 623.291992188 c 0
 204.54296875 623.3515625 199.080047613 619.442644395 199 608 c 0
 198.493164063 535.548828125 200 433.189453125 199 366 c 1
 244.111328125 368.1015625 468.743190164 367.124736956 474.029296875 367.649414062 c 0
 482.559570312 368.49609375 483.287109375 397.689453125 494.129882812 429.393554688 c 1
 547.087890625 418.997070312 l 1
 538.954101562 386.731445312 535.262695312 357.520507812 535.262695312 327.434570312 c 0
 535.262695312 306.954101562 537.830078125 285.9140625 542.700195312 262.169921875 c 1
 492.89453125 248.1171875 l 1
 475.56640625 291.19140625 484.264748574 312.408093938 476.526367188 312.28125 c 0
 442.984375 311.731445312 255.364257812 311.29296875 199.275390625 311.376953125 c 1
 199.188476562 221.100585938 197.291743513 133.611129784 199.069335938 73.599609375 c 0
 199.508789062 58.763671875 206.004969341 55.555266231 212 56 c 0
 260.154296875 59.572265625 341.966796875 58.001953125 376.833984375 58.001953125 c 0
 412.94204016 58.001953125 494.307900349 57.7085362529 527 57 c 0
 548.943694196 56.5244140625 552.771428571 96 568 141 c 1
 622 126 l 1
 605 38 581 11 549.630859375 0.54296875 c 0
 443.542188116 -33.6405705147 431 -79.8154717663 431 -98 c 0
 431 -112.439188802 449.981583761 -121 474 -121 c 0
 494.092658674 -121 518.21737778 -112.454966883 542.97265625 -93.599609375 c 1
 542.97265625 -93.599609375 563.92554694 -120.203078613 569 -141 c 1
 545.968797867 -166.004842105 507.165920351 -177 471.771484375 -177 c 0
 419.146786438 -177 372.561523438 -148.506528262 372.561523438 -100.834960938 c 0
 372.561523438 -67.7546141887 388.488613778 -31.2149767541 425.964089813 0.114130003806 c 1
 387.886629996 1.45827568296 349.893760458 3.3037109375 312.853515625 3.3037109375 c 0
 233.0859375 3.3037109375 158.16796875 0.09765625 97.078125 -13.8818359375 c 1
 87 41 l 1
 125.3203125 48.6240234375 143.080078125 51.0830078125 143.092773438 59.1767578125 c 0
 143.387695312 97.6572265625 143.561523438 225.0078125 143.561523438 345.940429688 c 0
 143.561523438 482.026411314 143.380474775 607.653380628 143.216796875 619.430664062 c 0
 143.131835938 625.543945312 142.502929688 626.177734375 81.6806640625 628.421875 c 1
 85.2509765625 684.215820312 l 1
EndSplineSet
Position2: "cpsp-1" dx=0 dy=0 dh=50 dv=100
Substitution2: "c2pc-1" eogonek.pcap
Substitution2: "c2sc-1" eogonek.smcp
EndChar
StartChar: kgreenlandic
Encoding: 312 312 474
Width: 520
Flags: HW
LayerCount: 2
Fore
SplineSet
179 211 m 1
 169 204 l 1
 169 140.25 171.723635175 78.5727361869 175 54 c 0
 177 39 185.619315018 37.1522739927 196 33 c 0
 206 29 216 28 230 27 c 1
 225 -7 l 1
 191 -1 172 4 130 4 c 3
 100 4 64 -3 34 -5 c 1
 32 28 l 1
 43 29 54.2438024311 30.030722479 64 33 c 0
 87 40 93.3132247115 48.0575369992 96 76 c 0
 101 128 105 170 105 235 c 3
 105 253.368013699 103.27297056 281.632471039 101 318 c 0
 100 334 94 348 77 348 c 3
 71 348 51 345 41 344 c 1
 36 373 l 1
 88 381.884615385 124 387.538461538 167 415 c 1
 187 399 l 1
 181 385 174.184346429 357.982026431 173 347 c 0
 171 328.454705882 168 273.908529412 167 227 c 1
 201.5858 255.29682906 250.733796152 297.620653704 285 330 c 0
 291.596571429 336.233333333 301 348.518518519 301 355 c 3
 301 373 277 372 267 374 c 1
 269 401 l 1
 295 399 330 399 357 399 c 3
 388.166666667 399 428.777777778 399 459 403 c 1
 461 371 l 1
 400.820895522 364.000222222 364.689666047 341.369176033 333 319 c 2
 231 247 l 1
 297.824402928 186.179636497 367.532605558 122.858938129 446 52 c 1
 462 37 490 29 504 28 c 1
 501 -6 l 1
 467 0 449 4 407 4 c 3
 377 4 345 -3 315 -5 c 1
 312 28 l 1
 348 33 348 37 359 38 c 1
 296.777686305 99.8038948798 205.773756239 186.901875399 179 211 c 1
EndSplineSet
MultipleSubs2: "case-2" K quoteleft
EndChar
StartChar: uni018E
Encoding: 398 398 835
Width: 618
Flags: HW
LayerCount: 2
Fore
SplineSet
601 -1 m 1
 528.479492188 2.64453125 442.412109375 4.03125 361.044921875 4.03125 c 3
 208.22265625 4.03125 70.7958984375 -0.1865234375 53 -4 c 1
 21 27.4541015625 48 19.5908203125 59 169 c 1
 89 172 l 1
 100 128.723632812 81 72.2236328125 117 59 c 0
 163.865234375 47.1396484375 238.1796875 40.923828125 309.583007812 40.923828125 c 3
 342.323242188 40.923828125 374.372070312 42.5888671875 402 46 c 0
 420 48 433 62 434 80 c 0
 438 166.833984375 443 252.59765625 444 333 c 1
 386.454101562 330.333007812 242.588867188 330.333007812 230 329 c 0
 193 323.133789062 188 292.626953125 172 241 c 1
 138 248 l 1
 155 312 151 375 140 439 c 1
 176 448 l 1
 196 387.48828125 189 376.409179688 230 373 c 0
 269.563476562 369 360.37890625 369.799804688 444 369 c 1
 445 460.203125 441 542.944335938 429 605 c 0
 425 622 416 636 399 637 c 0
 353.168945312 641.435546875 312.680664062 645.627929688 274.3046875 645.627929688 c 3
 239.603515625 645.627929688 206.8671875 641.186523438 173 628 c 0
 132.028320312 612.033203125 125.083984375 593.671875 98 533 c 1
 70 540 l 1
 83.94921875 596.682617188 93.5390625 632.752929688 104 686 c 1
 111.338867188 686.038085938 118.701171875 686.055664062 126.083007812 686.055664062 c 0
 209.87109375 686.055664062 296.573242188 682.9296875 375.267578125 682.9296875 c 3
 457.7890625 682.9296875 532.775390625 685.447265625 591 695 c 1
 601 660 l 1
 548 650 525 637 525 609 c 1
 521 531.712890625 521 155.313476562 527 71 c 0
 528 44 533 44 606 30 c 1
 601 -1 l 1
EndSplineSet
Position2: "cpsp-1" dx=0 dy=0 dh=50 dv=100
EndChar
StartChar: uni0193
Encoding: 403 403 2524
Width: 803
Flags: HW
LayerCount: 2
Fore
SplineSet
43 348 m 0
 43 601.579101562 302 705 466 705 c 0
 522 705 564.28515625 687.428710938 604 677 c 0
 628.230078508 670.637429714 632.547025645 675.597423016 635.556968939 690.698367772 c 0
 643.603766138 731.069307729 665.591362738 763.380081078 694.950195312 792.549804688 c 0
 729.646328998 827.022450265 810.397957833 858.700195312 817.299804688 858.700195312 c 0
 840.400390625 858.700195312 877.799804688 827.899414062 877.799804688 798.200195312 c 0
 877.799804688 764.099609375 845.900390625 741 803 741 c 1
 794.0703125 778.125 774.723632812 785 752.400390625 785 c 0
 743.411027793 785 723.190950198 775.056327847 711.450195312 761.75 c 0
 696.603122798 744.92314207 690.055910627 683.813568065 694.977465962 636.335034246 c 2
 706 530 l 1
 675 524 l 1
 631 620 549 667 443 667 c 0
 252 667 142 511.012695312 142 359 c 0
 142 169.799804688 296 15 483 15 c 0
 538 15 570.151367188 27.7373046875 620 51 c 0
 635 58 636 73 636 90 c 0
 636 128.721679688 638 192.916992188 638 251 c 0
 638 282 632.067363814 302.933289762 583 306 c 0
 551 308 528 309 496 310 c 1
 498 342 l 1
 600 332 712 333 761 339 c 1
 764 315 l 1
 736 308 725.566939206 301.016613534 725 280 c 0
 723 205.859375 722.445890383 138.809588436 720 85 c 0
 719 63 725 56 748 41 c 1
 745 20 l 1
 666 8 502 -22 448 -22 c 0
 220 -22 43 132.671875 43 348 c 0
EndSplineSet
EndChar
StartChar: uni01A4
Encoding: 420 420 2528
Width: 722
Flags: HW
LayerCount: 2
Fore
SplineSet
392 278 m 3
 499 278 601 335.9609375 601 459 c 3
 601 540 542.336254197 613.739442579 499 633 c 0
 463 649 411 655 345 655 c 3
 330 655 318.598349595 641.994621601 319 627 c 0
 321 552.334960938 320 421.16796875 321 290 c 1
 343 281 365 278 392 278 c 3
264 684 m 3
 325.585635359 684 359.414364641 694 421 694 c 3
 586 694 690 576 690 467 c 3
 690 347.405273438 588 242 384 242 c 3
 361 242 344 246 324 250 c 1
 326 181 326.453213516 105.069707637 331 74 c 0
 337 33 357 42 428 37 c 1
 424 -10 l 1
 365.657226562 -3.2685546875 325.251953125 2.833984375 281.423828125 2.833984375 c 3
 247.125 2.833984375 210.73046875 -0.90234375 162 -11 c 1
 148 27 l 1
 222 52.103515625 237.224468716 42.235790168 238 79 c 0
 239.333333333 142.206923339 240 214.884459434 240 292 c 3
 240 461 232.901044498 604.989555016 232 614 c 0
 231 624 220 653 196 653 c 3
 155 653 96 634 96 592 c 3
 96 571 111 554 135 537 c 1
 123 506 98 487 71 487 c 3
 32 487 7 515 7 544 c 3
 7 621 108 686 189 686 c 3
 205.176470588 686 239 684 264 684 c 3
EndSplineSet
EndChar
StartChar: uni01B4
Encoding: 436 436 857
Width: 540
Flags: HW
LayerCount: 2
Fore
SplineSet
348.607721582 244.000003017 m 0
 317.480216416 177.891097822 270.643813919 81.1219999326 223 -12 c 0
 179 -98 113 -281 113 -346 c 1
 109 -346 90 -343 52 -343 c 3
 22 -343 15 -345 -6 -346 c 1
 -6 -346 -5 -330 -7 -319 c 1
 85 -283 73 -255 176 -32 c 1
 148 100.845703125 84.3007692526 310.427472496 58 348 c 0
 51 358 47.9141031266 367.57464375 37 370 c 0
 28 372 16 375 6 376 c 1
 10 406 l 1
 33 402 68 400 91 400 c 3
 125 400 153 401 185 407 c 1
 189 379 l 1
 156 370 l 0
 149 369 145 368 145 359 c 3
 145 358 147.182637941 351.033082481 148 346 c 0
 160 272.107421875 192 153.462890625 226 65 c 1
 253.787010354 108.25843066 277.318015944 161.613683748 301.833476298 212.999996349 c 0
 340 293 365.956234083 419 468.797851562 419 c 3
 513.394001396 419 540 389.1786974 540 355.576171875 c 3
 540 317.727644957 518.04296875 299.151367188 494.890625 299.151367188 c 3
 477.447265625 299.151367188 459.326171875 306.061106972 449.40234375 319.6875 c 1
 455.037981899 328.571965144 460 333.211388221 460 350 c 3
 460 358.212890625 451.46067245 364.697265625 441.439453125 364.697265625 c 3
 400.623221682 364.697265625 372.050906445 293.788872291 348.607721582 244.000003017 c 0
EndSplineSet
EndChar
StartChar: uni0221
Encoding: 545 545 2532
Width: 624
Flags: HW
AnchorPoint: "TopRight" 503.5 581 basechar 0
AnchorPoint: "Top" 390 734 basechar 0
AnchorPoint: "Bottom" 224 -15 basechar 0
LayerCount: 2
Fore
SplineSet
361 53 m 1
 317 23 260 -5 197 -5 c 3
 97 -5 34 79 34 172 c 3
 34 252 79.5630586283 321.640322119 135 359 c 0
 181 390 237 405 267 405 c 3
 292 405 349 388 363 386 c 1
 363 504 361 562.992063992 361 626 c 0
 361 642 354 656 337 656 c 3
 331 656 306 650 296 649 c 1
 288 681 l 1
 340 692 399 720 442 754 c 1
 462 738 l 1
 456 724 449.413489624 696.954544586 448 686 c 0
 428 531 427 380.576072156 427 185 c 3
 427 110.480769231 413.720072356 30 497 30 c 3
 531.588235294 30 581 45.8902649863 581 86 c 3
 581 108.64565046 565.142857143 119 544 119 c 3
 529.198122065 119 511 101.085999848 511 77 c 3
 511 14.1876843181 568 -69 568 -69 c 1
 519 -88 l 1
 519 -88 466 11.7213114754 466 70 c 3
 466 117.344235991 508.293452508 155 553 155 c 3
 602.921875 155 624 120.470774048 624 95 c 3
 624 2.40296733057 513.075 -19 450 -19 c 3
 432.84867063 -19 378.442569201 -12.0942250748 361 53 c 1
228 359 m 3
 206 359 174.4998206 345.796757269 155 333 c 0
 123 312 98 278 98 226 c 3
 98 136 154 44 256 44 c 3
 296.196078431 44 331.490196078 59.1111111111 356 78 c 1
 353 113 362 142 362 306 c 0
 362 337 336 340 310 346 c 0
 284 352 238 359 228 359 c 3
EndSplineSet
EndChar
StartChar: uni0238
Encoding: 568 568 2536
Width: 717
Flags: HW
LayerCount: 2
Fore
SplineSet
209 359 m 3
 154.83203125 359 93 299.83984375 93 226 c 3
 93 136 142.974609375 44 234 44 c 3
 269.774414062 44 301.186523438 60 323 80 c 1
 324 154 327 231 327 306 c 0
 327 337 301.780273438 339.104492188 277 346 c 0
 255.439453125 352 217.29296875 359 209 359 c 3
392 355 m 1
 431.627929688 376 486.921875 402 533 402 c 3
 619.907226562 402 688 300 688 208 c 3
 688 75 577.114257812 -10 469 -10 c 3
 442.275390625 -10 421.526367188 -4.9287109375 394 7 c 0
 364 20 352 19 337 -10 c 1
 313 -4 l 1
 314 5.279296875 320 34 321 49 c 1
 281.829101562 21.0693359375 231.084960938 -5 175 -5 c 3
 85.4296875 -5 29 79 29 172 c 3
 29 296.686523438 134.291015625 405 238 405 c 3
 261.4375 405 314.875 388 328 386 c 1
 328 504 326 562.9921875 326 626 c 0
 326 642 319 656 302 656 c 3
 296 656 271 650 261 649 c 1
 253 681 l 1
 305 692 364 720 407 754 c 1
 427 738 l 1
 421 724 414.456054688 696.94921875 413 686 c 0
 399.221679688 582.413085938 393.979492188 469.237304688 392 355 c 1
489 355 m 3
 442.622070312 355 414.97265625 336 390 321 c 1
 392 64 l 1
 421.671875 46 454.94140625 31 499 31 c 3
 572.276367188 31 622 85 622 170 c 3
 622 262 569.15234375 355 489 355 c 3
EndSplineSet
EndChar
StartChar: uni0239
Encoding: 569 569 2537
Width: 717
Flags: HW
LayerCount: 2
Fore
SplineSet
209 359 m 3
 154.83203125 359 93 299.83984375 93 226 c 3
 93 136 142.974609375 44 234 44 c 3
 269.774414062 44 301.186523438 60 323 80 c 1
 324 154 327 231 327 306 c 0
 327 337 301.780273438 339.104492188 277 346 c 0
 255.439453125 352 217.29296875 359 209 359 c 3
392 355 m 1
 431.627929688 376 486.921875 402 533 402 c 3
 619.907226562 402 688 300 688 208 c 3
 688 75 577.114257812 -10 469 -10 c 3
 442.275390625 -10 416.4140625 -2 394 7 c 1
 394 -75 394.065429688 -246.991210938 399 -284 c 0
 401 -299 419.9765625 -303.310546875 431 -304 c 0
 447 -305 466 -307 480 -308 c 1
 479 -342 l 1
 440 -341 409 -339 367 -339 c 3
 337 -339 289 -344 259 -348 c 1
 256 -316 l 1
 267 -315 275.181640625 -313.822265625 286 -311 c 0
 309 -305 314.497070312 -293.959960938 317 -266 c 0
 322 -210.1484375 326 -111.333007812 326 53 c 1
 285.48828125 23 233.005859375 -5 175 -5 c 3
 85.4296875 -5 29 79 29 172 c 3
 29 296.686523438 134.291015625 405 238 405 c 3
 264.041992188 405 323.248046875 385 338 385 c 3
 350.723632812 385 362.076171875 394.657226562 375 415 c 1
 396 408 l 1
 393.942382812 394.577148438 392.248046875 372.314453125 392 355 c 1
489 355 m 3
 442.622070312 355 414.97265625 336 390 321 c 1
 392 64 l 1
 421.671875 46 454.94140625 31 499 31 c 3
 572.276367188 31 622 85 622 170 c 3
 622 262 569.15234375 355 489 355 c 3
EndSplineSet
EndChar
StartChar: uni025A
Encoding: 602 602 2551
Width: 562
Flags: HW
LayerCount: 2
Fore
SplineSet
414.276367188 277.443359375 m 1
 414.276367188 243.9713234 412.0390625 215.783897853 412.0390625 186.250976562 c 3
 412.0390625 134.933236347 425.149524633 95.5634765625 477.346679688 95.5634765625 c 3
 501.392496717 95.5634765625 524.501168121 118.040074393 562 140 c 1
 551.130859375 162.7890625 l 1
 542.557277479 158.504247818 529.703477788 148.063476562 519.434570312 148.063476562 c 3
 496.870703125 148.063476562 475.141289294 166.614738798 470.934570312 202.063476562 c 0
 466.297944032 241.134912003 468.616295143 286.18931991 469.514322862 315.999998854 c 1
 448 327.576171875 l 1
 314.639931757 257.455829682 153.467639438 182.967579318 20 131 c 1
 20 107 l 1
 31 106 46 98 51 86 c 0
 71.3556074335 37.1465421596 132 -8 190 -8 c 3
 224 -8 367 52 367 227 c 3
 367 334 306 417 199 417 c 3
 130 417 70 382 28 349 c 1
 49 322 l 1
 77 345 116 367 163 367 c 3
 222 367 292 321 292 207 c 3
 292 130.837433832 268.704814097 39 204 39 c 3
 158.425531915 39 112.85106383 89.9625 102 135 c 1
 110 139 l 0
 414.276367188 277.443359375 l 1
EndSplineSet
EndChar
StartChar: uni025E
Encoding: 606 606 1066
Width: 457
Flags: HW
LayerCount: 2
Fore
SplineSet
256 -10 m 3
 131 -10 32 72 32 195 c 3
 32 352 167 420 257 420 c 3
 359.752604167 420 429 372.079101563 429 310 c 3
 429 280.885091146 399 225.505617978 348 216 c 1
 405.857142857 194.517420015 429 158.387872024 429 133 c 3
 429 51.2858557735 346.571037046 -10 256 -10 c 3
265 29 m 3
 330.076812744 29 359 57.8 359 101 c 3
 359 135.928803609 341.820019523 172.214212975 251 189.653320312 c 1
 251 218.396484375 l 1
 350.197856212 227.688833356 356 253.920806974 356 293 c 3
 356 336.732666016 303.826544944 375 236 375 c 3
 156 375 108 305 108 228 c 3
 108 125 178 29 265 29 c 3
EndSplineSet
EndChar
StartChar: uni0261
Encoding: 609 609 1068
Width: 463
UnlinkRmOvrlpSave: 1
Flags: HW
AnchorPoint: "Top" 252 465 basechar 0
AnchorPoint: "Bottom" 198 -15 basechar 0
LayerCount: 2
Fore
SplineSet
344 32 m 1
 310.083053234 15.6001291583 257.666946766 -9 196 -9 c 3
 102.91900059 -9 32 89.5152715203 32 182 c 3
 32 310.45761565 143.218817718 419 275 419 c 3
 344.157156808 419 344.157156808 395 372 395 c 3
 395 395 403 416 410 423 c 1
 429 412 l 1
 427 406 423.114234804 389.343131783 420 380 c 0
 414.000418527 362.000432249 408.04432932 342.108232993 405 266 c 0
 404 241 404 208.443359375 404 183 c 3
 404 75.7718062383 403 -43.371196161 403 -95 c 3
 403 -145 390.818956684 -175.880611215 377 -197 c 0
 354.752929688 -231 326.441437189 -252.377000749 287 -278 c 0
 249.55308107 -302.327267059 221.696296296 -319 171 -319 c 3
 132.719626168 -319 72.906542056 -304 43 -274 c 1
 44 -247 43 -247 92 -210 c 1
 129.556099398 -231.00036951 159.406908886 -259 196 -259 c 3
 219.176667204 -259 258.80566161 -259.641451465 274 -248 c 0
 302.595703125 -226.090820312 318.08871751 -185.934534561 325 -157 c 0
 332.3125 -125.220493621 338 -48.9492728157 338 143 c 3
 338 197.415039062 338 260.661132812 338 303 c 3
 338 309 333.484375679 324.52903977 328 332 c 0
 304.508713108 364.000446429 262.043565538 375 225 375 c 3
 158.117142229 375 106 299.475352894 106 216 c 3
 106 125.503180427 152.11702474 34 240 34 c 3
 302.38256392 34 331.098162287 62.9410351562 341 75 c 1
 344 32 l 1
EndSplineSet
EndChar
StartChar: uni0263
Encoding: 611 611 1069
Width: 446
Flags: HW
AnchorPoint: "Top" 232.5 465 basechar 0
LayerCount: 2
Fore
SplineSet
58 348 m 0
 50.3424671066 357.505902902 47.9141031266 367.57464375 37 370 c 0
 28 372 16 375 6 376 c 1
 10 406 l 1
 33 402 68 400 91 400 c 3
 125 400 153 401 185 407 c 1
 189 379 l 1
 156 370 l 0
 149 369 145 368 145 359 c 3
 145 358 146.932155488 350.985951073 148 346 c 0
 166.252631579 260.775300172 352 3.06190365398 352 -200 c 3
 352 -277.724271498 293.29747869 -339 223 -339 c 3
 159.095285776 -339 109 -283.268120235 109 -216 c 3
 109 -113.542459633 181.567480875 -15.7673194624 237.803865363 83.9999967888 c 0
 277.768602999 154.90026278 312.294317866 243.030112532 342 319 c 0
 344.651190392 325.780205713 347 335 347 344 c 3
 347 366 340 367 271 381 c 1
 277 411 l 1
 308 404 351 400 369 400 c 3
 394 400 422 402 443 408 c 1
 448 378 l 1
 410 368 401.650711875 362.728148218 383 319 c 0
 370.592105888 289.908658264 324.402676102 184.870733252 259.75671854 63.0000044808 c 0
 215 -21.3754787147 158 -101.168796677 158 -179 c 3
 158 -234.200296232 188.832485703 -290 243 -290 c 3
 271.048568987 -290 285 -253.197531905 285 -220 c 3
 285 -144.597682743 254.464776162 -30.3370426374 199.844726562 78 c 0
 135.622784065 205.382076247 74.2317951804 327.850185293 58 348 c 0
EndSplineSet
EndChar
StartChar: uni0264
Encoding: 612 612 1070
Width: 430
Flags: HW
LayerCount: 2
Fore
SplineSet
136 157 m 3
 136 99.3131264741 181.992647456 41 250 41 c 3
 290.737970524 41 311 72.0191731771 311 100 c 3
 311 162.693332891 132.039967257 366 76 366 c 3
 57.5263671875 366 49.89453125 344.5 39 323 c 1
 12 340 l 1
 33.77734375 378.368164062 71.568359375 421 110 421 c 3
 168.353231691 421 368 209.759676558 368 135 c 3
 368 64.0301067073 300.237633168 -9 227 -9 c 3
 145.717103085 -9 82 25.2858664773 82 111 c 3
 82 193.690948487 279.862068966 421 370 421 c 3
 391.375 421 413.1953125 401 427 378 c 1
 426 351 425 353 370 321 c 1
 356.516601562 341 338.064453125 361 326 361 c 3
 277.927422833 361 136 204.708235981 136 157 c 3
EndSplineSet
EndChar
StartChar: uni026E
Encoding: 622 622 2559
Width: 594
Flags: HW
AnchorPoint: "Top" 366.5 465 basechar 0
LayerCount: 2
Fore
SplineSet
158 300 m 3
 158 218 159.046063715 91.1545221377 164 54 c 0
 166.125 39 186.836089483 36.8208035995 198 33 c 0
 205.333333333 30.3333333333 213.583333333 29.6666666667 220 29 c 1
 215 -5 l 1
 184.112 -0.0909090909091 149.264 4 116 4 c 3
 86 4 40 -1 10 -5 c 1
 8 28 l 1
 19 29 34.1817100136 30.1778373948 45 33 c 0
 68 39 80.3132247115 48.0575369992 83 76 c 0
 88 128 91 209 91 274 c 3
 91 527 89.4401145653 602.958166956 88 626 c 0
 87 642 81 656 64 656 c 3
 58 656 32 650 22 649 c 1
 14 681 l 1
 66 692 126 720 169 754 c 1
 186 738 l 1
 180 724 174.459796002 696.948470013 173 686 c 0
 163 611 158 424 158 300 c 3
588 -113 m 3
 588 -180.474609375 547.492048151 -256.133914148 485 -301 c 0
 446 -329 409 -353 350 -353 c 3
 303.64453125 -353 231.21484375 -335 195 -299 c 1
 196 -272 195 -272 244 -235 c 1
 300.333007812 -262 345.111328125 -298 400 -298 c 3
 493.27734375 -298 531 -186.76953125 531 -117 c 3
 531 -4.322265625 426.768554688 68.4931640625 335.169921875 68.4931640625 c 3
 314.450796437 68.4931640625 293.403412739 65.1585354873 274 58 c 1
 252 90 l 1
 331.013976793 171.793840681 409.260021097 265.5 476 360 c 1
 445.876953125 361 417.123046875 362 387 362 c 3
 291.383299002 362 169.066965837 359.75631301 146 360 c 1
 147 397 l 1
 173.929638365 395.588235294 209.42629717 395 371 395 c 3
 466.874023438 395 545.03125 394 569 401 c 1
 579 381 l 1
 507.888671875 298.025390625 425.780273438 214.317382812 362 124 c 1
 371.612304688 125.752929688 381.33984375 126.625976562 391.081054688 126.625976562 c 3
 488.807617188 126.625976562 588 44.8710937503 588 -113 c 3
EndSplineSet
EndChar
StartChar: uni027F
Encoding: 639 639 2564
Width: 358
Flags: HW
AnchorPoint: "Bottom" 230 -15 basechar 0
LayerCount: 2
Fore
SplineSet
220 246 m 3
 220 303.416666667 203.466491632 332.729040584 180 352 c 0
 173.724813371 357.153257195 147.721518987 370 130 370 c 3
 109.166666667 370 105 360.357142857 105 343 c 3
 105 334 111 321 112 316 c 1
 37 286 l 1
 33 296 28 316 28 326 c 3
 28 340 36.0533912764 353.397443175 55 367 c 0
 105.615942029 403.339285714 168.195652174 422 182 422 c 3
 196.721649485 422 241.190862372 393.201735018 250 384 c 0
 275.333333333 357.537634409 288 307.571428571 288 277 c 3
 288 240.197183099 290.277593954 111.479138616 292 76 c 0
 293.361176397 47.9616833812 309 37 319 33 c 0
 329 29 340 29 351 28 c 1
 349 -5 l 1
 319 -1 289 4 259 4 c 3
 217 4 145 1 106 0 c 1
 105 32 l 1
 119 33 137 33 153 34 c 0
 189.981854842 36.3113659276 199.094834723 40.8162005438 210 52 c 0
 220.858670786 63.136117 220 193.458333333 220 246 c 3
EndSplineSet
EndChar
StartChar: uni0281
Encoding: 641 641 2566
Width: 496
Flags: HW
LayerCount: 2
Fore
SplineSet
178 185.194335938 m 1
 177 143.568359375 176.141870544 88.7710263708 183 52.1943359375 c 0
 189 20.1943359375 202 18.1943359375 215 16.1943359375 c 1
 276.354166667 16.8693949382 309 45 310 81 c 1
 310 141.985885417 253 186 202 187 c 1
 192.490566038 187 187.509433962 186.097167969 178 185.194335938 c 1
60 -0.8056640625 m 1
 60 23.1943359375 l 1
 96 24.1943359375 104 31.1943359375 109 63.1943359375 c 1
 111.161132812 111.770507812 112.201171875 147.366210938 112.201171875 182.44140625 c 3
 112.201171875 228.513671875 110.40625 273.686523438 107 346.194335938 c 1
 104 371.194335938 93 376.194335938 62 378.194335938 c 1
 66 405.194335938 l 1
 89.42578125 400.689453125 113.663085938 398.620117188 137.98046875 398.620117188 c 0
 167.643554688 398.620117188 197.42578125 401.69921875 226 407.194335938 c 1
 231 378.194335938 l 1
 201 373.194335938 190.01189389 371.096623389 187 345.194335938 c 0
 182 302.194335938 180 264.194335938 178 212.194335938 c 1
 198.641329451 213.190425312 207.518728562 215 229 215 c 1
 294.011235955 342.574821921 383.421457667 425.007783778 492 415.194335938 c 1
 498 386 l 1
 378 386 299.040609137 239.6 297 203 c 1
 339.683673469 191.283538696 386 151.078288824 386 100.194335938 c 1
 386 40.1943359375 322 -7.8056640625 246 -7.8056640625 c 1
 197 -7.8056640625 178 0.1943359375 135 0.1943359375 c 1
 105 0.1943359375 87 0.1943359375 60 -0.8056640625 c 1
EndSplineSet
EndChar
StartChar: uni0287
Encoding: 647 647 2569
Width: 341
Flags: HW
AnchorPoint: "Top" 168 465 basechar 0
AnchorPoint: "Bottom" 191 -62 basechar 0
LayerCount: 2
Fore
SplineSet
327 35 m 1
 275 5 232 -26 201 -73 c 1
 186 -70 l 1
 190 -44 190 -22 192 6 c 1
 142 4 83 5 33 3 c 1
 37 50 l 1
 87 50 145 48 195 47 c 1
 199 109 200 176 200 298 c 3
 200 332 186 367 134 367 c 3
 92 367 62 350 32 336 c 1
 32 336 26 349 21 359 c 1
 59 384 123 415 181 415 c 3
 201 415 273 405 273 308 c 3
 273 208 269 146 267 48 c 1
 267 48 302 51 324 51 c 1
 327 35 l 1
EndSplineSet
EndChar
StartChar: uni0288
Encoding: 648 648 2570
Width: 341
Flags: HW
AnchorPoint: "Top" 143.5 508 basechar 0
AnchorPoint: "TopRight" 313 531 basechar 0
LayerCount: 2
Fore
SplineSet
14 370 m 1
 66 400 109 431 140 478 c 1
 155 475 l 1
 151 449 151 427 149 399 c 1
 199 401 258 400 308 402 c 1
 304 355 l 1
 254 355 196 357 146 358 c 1
 142 233.505976096 141 98.9721115538 141 -146 c 3
 141 -180 155 -215 207 -215 c 3
 249 -215 279 -198 309 -184 c 1
 309 -184 315 -197 320 -207 c 1
 282 -232 218 -263 160 -263 c 3
 140 -263 68 -253 68 -156 c 3
 68 41.3076923077 72 163.638461538 74 357 c 1
 74 357 39 354 17 354 c 1
 14 370 l 1
EndSplineSet
EndChar
StartChar: gravecomb
Encoding: 768 768 392
Width: 0
Flags: HW
AnchorPoint: "TopMark" -185 768 basemark 0
AnchorPoint: "TopMark" -180 537 mark 0
AnchorPoint: "Top" -174 537 mark 0
LayerCount: 2
Fore
SplineSet
-116 613.625 m 1
 -148.611328125 574 l 1
 -205.611328125 626 -276.611328125 684 -331.611328125 718 c 1
 -320.611328125 736 -300.400390625 763.379882812 -300.400390625 763.379882812 c 1
 -238.754858444 725.712153957 -157.2631078 657.84751608 -116 613.625 c 1
EndSplineSet
EndChar
StartChar: acutecomb
Encoding: 769 769 15
Width: 0
Flags: HW
AnchorPoint: "Top" -174 537 mark 0
AnchorPoint: "TopMark" -180 537 mark 0
AnchorPoint: "TopMark" -185 768 basemark 0
LayerCount: 2
Fore
SplineSet
-232.611328125 613.625 m 1
 -191.348220325 657.84751608 -109.856469681 725.712153957 -48.2109375 763.379882812 c 1
 -48.2109375 763.379882812 -28 736 -17 718 c 1
 -72 684 -143 626 -200 574 c 1
 -232.611328125 613.625 l 1
EndSplineSet
EndChar
StartChar: uni0357
Encoding: 855 855 1127
Width: 0
Flags: HW
AnchorPoint: "Top" -157 537 mark 0
AnchorPoint: "TopMark" -163 537 mark 0
AnchorPoint: "TopMark" -168 752 basemark 0
LayerCount: 2
Fore
SplineSet
-176 618 m 1
 -151.466666667 618 -128 638.266666667 -128 666 c 3
 -128 691.674418605 -150.4 712 -176 712 c 1
 -182 712 l 1
 -182 768 l 1
 -176 768 l 1
 -119.272727273 768 -72 723.12 -72 666 c 3
 -72 605.220779221 -121.974025974 562 -176 562 c 1
 -182 562 l 1
 -182 618 l 1
 -176 618 l 1
EndSplineSet
EndChar
StartChar: uni0372
Encoding: 882 882 1130
Width: 788
Flags: HW
LayerCount: 2
Fore
SplineSet
158 312 m 0
 158.665039062 281.520507812 180.604492188 284.922851562 194 279 c 1
 194 279 190 256 189 242 c 1
 156.827148438 246.689453125 128.735351562 249.362304688 102 249.442382812 c 0
 78.232421875 249.50390625 55.537109375 247.805664062 32 244 c 1
 32 244 27 268 25 286 c 1
 44.63671875 290.875 66.4541015625 290.875 67 312 c 1
 79 416.999023438 84 603.912109375 72 627 c 1
 68.181640625 644.111328125 50.7275390625 644.111328125 30 648 c 1
 33 686 l 1
 56.6533203125 684.20703125 78.353515625 682.822265625 100.5 682.159179688 c 1
 266.081054688 682.954101562 520.212890625 682.123046875 692.5 681.71484375 c 1
 711.781561669 682.356445312 732.101313165 684.06640625 757 687 c 1
 763 650 l 1
 742.451843262 641.7890625 737.838684082 643.158203125 737 624 c 0
 726 527.192382812 709 335.813476562 730 300 c 1
 734.56677576 280.357421875 748.775918497 279.571289062 764 278 c 1
 764 278 759 258 760 244 c 1
 736.210531656 247.758789062 711.724685471 249.825195312 686 249.58984375 c 0
 661.250976562 249.32421875 635.399414062 246.657226562 608 241 c 1
 608 241 602 264 600 276 c 1
 622.897460938 284.461914062 637.20703125 286.1328125 638 309 c 0
 649.390625 412.486328125 649.434570312 496.606445312 643 611 c 0
 642.609375 627.709960938 617.73828125 642.413085938 576.5 643.53125 c 0
 529.358398438 645.216796875 463.9140625 651.794921875 461 611 c 0
 450 443.37890625 433 112.009765625 454 50 c 0
 463 25 491 24 521 22 c 1
 521 22 516 -0.94140625 517 -17 c 1
 442.306640625 5.56640625 367.328125 4.1357421875 286 -15 c 1
 286 -15 280 8 278 20 c 1
 325 30 354.373046875 31.974609375 356 59 c 0
 367.390625 248.15625 367.434570312 401.911132812 361 611 c 0
 360.181640625 655.258789062 275.310546875 646.499023438 226.5 646.43359375 c 0
 194.55859375 646.610351562 171.834960938 639.114257812 170 632 c 0
 156.96484375 567.3046875 151.73828125 391.74609375 158 312 c 0
EndSplineSet
Position2: "cpsp-1" dx=0 dy=0 dh=50 dv=100
EndChar
StartChar: uni0373
Encoding: 883 883 1131
Width: 377
UnlinkRmOvrlpSave: 1
Flags: HW
LayerCount: 2
Fore
SplineSet
235.600585938 619 m 1
 215.180664062 344 203.334960938 130.0078125 203.334960938 94 c 3
 203.334960938 62.9892578125 202.865234375 30.3515625 202.600585938 -4 c 1
 182.106445312 -3.3271484375 124.528320312 -0.8056640625 121.600585938 9 c 1
 129.908203125 27.181640625 135.895507812 41.44140625 148.600585938 109 c 0
 168.124023438 307.599609375 184.146484375 488.258789062 194.600585938 621 c 1
 194.600585938 623 235.600585938 622 235.600585938 619 c 1
250.600585938 681 m 3
 371.6171875 681 367.638671875 684.041015625 387.200195312 690.799804688 c 1
 416 671.599609375 l 1
 389.166992188 606.448242188 355.178710938 534.05859375 351.600585938 449 c 1
 311.600585938 455.400390625 l 1
 319.600585938 506.184570312 329.600585938 555.015625 345.600585938 605.799804688 c 1
 252.436523438 605.799804688 138.200195312 612 101.600585938 612 c 3
 71.23046875 612 60.6005859375 591.396484375 60.6005859375 584 c 3
 60.6005859375 531.665039062 67.283203125 483.35546875 74.80078125 459.200195312 c 1
 50.80078125 439.200195312 l 1
 22.447265625 470.084960938 2.6005859375 553.236328125 2.6005859375 596 c 3
 2.6005859375 657.745117188 52.3837890625 681 250.600585938 681 c 3
EndSplineSet
EndChar
StartChar: uni037F
Encoding: 895 895 1141
Width: 369
Flags: HW
AnchorPoint: "Top" 230 699 basechar 0
LayerCount: 2
Fore
SplineSet
276 225 m 3
 276 145.419921875 237.09375 92.5693359375 193 52 c 0
 160.90625 22.4716796875 129.948242188 0 81 0 c 3
 57.9716796875 0 21.990234375 11 4 33 c 1
 5.224609375 62.953125 4 62.953125 64 104 c 1
 92.1669921875 90.7138671875 109.030273438 73 142 73 c 3
 204.142578125 73 194.265625 168.251953125 194.265625 227.524414062 c 3
 194.265625 254.978515625 183.017289626 588.221679688 174 614 c 0
 166.305880248 650 110.252489862 647 52 652 c 1
 56 692 l 1
 172 677 238 680 361 692 c 1
 363 649 l 1
 311.37956543 647 277.402685547 657.016601562 274 616 c 0
 267.63170856 547.684343929 266.291015625 478.698329057 266.291015625 403.026367188 c 3
 266.291015625 347.991977069 276 289.421203124 276 225 c 3
EndSplineSet
EndChar
StartChar: gamma
Encoding: 947 947 369
Width: 479
UnlinkRmOvrlpSave: 1
Flags: HMW
AnchorPoint: "Top" 274 537 basechar 0
LayerCount: 2
Fore
SplineSet
171 -110 m 1
 189.55630803 -25.0842964226 231 120.84757076 231 220 c 3
 231 348.46121388 129.834129885 460 63 460 c 3
 54.4734299517 460 49.309178744 444.290228203 42 428 c 1
 25.0721990885 432.65325031 -4 457.46963502 -4 466 c 3
 -4 471.098632812 8.998046875 517.5 61.2802734375 517.5 c 3
 161.395763052 517.5 287 386.020052842 287 218 c 3
 287 144.6953125 240.34388745 40.7789130055 199.520507812 -50 c 0
 181.880417149 -91.6515946119 161.330165268 -131.416474011 151 -157 c 1
 136.008743673 -161 97.0095106611 -167.5 87 -161 c 1
 104.761434257 -123.60546875 120.255308234 -86.5781199586 143.169921875 -41.150390625 c 0
 279.21666671 228.559358708 366.860222189 378.119923506 417.516601562 470.040039062 c 0
 419.584455664 473.792328317 436.083600104 503.42959161 442.806640625 520 c 1
 459.379755833 516.155281454 483.380119155 505.902698668 491 488.139648438 c 1
 389.175080119 305.385481016 253.141126832 58.9270939188 171 -110 c 1
EndSplineSet
Substitution2: "pcap-1" gamma.pcap
Substitution2: "smcp-1" gamma.smcp
EndChar
StartChar: eta
Encoding: 951 951 323
Width: 587
UnlinkRmOvrlpSave: 1
Flags: HMW
AnchorPoint: "Top" 367 537 basechar 0
AnchorPoint: "Bottom" 117 -15 basechar 0
LayerCount: 2
Fore
SplineSet
52.900390625 496.6796875 m 3
 122.357238667 496.6796875 194 437 171.349609375 240 c 1
 149.749678742 240 137.599930633 240 116 240 c 1
 121.308060356 273.355112968 129.278463972 305.924492134 140.001953125 334.540039062 c 0
 182.508962419 437.321289062 277.361638442 511.200195312 363.700195312 511.200195312 c 3
 506.465820312 511.200195312 515.5 371.041015625 515.5 312.759765625 c 3
 515.5 185.88073591 461 31.024996095 461 -49 c 3
 461 -86.6971965269 477.746953212 -112.656355042 588 -116 c 1
 584.400509482 -137.792070797 582.599490518 -149.207150442 579 -171 c 1
 447.36482076 -171 404.900390625 -123.5703125 404.900390625 -47.580078125 c 3
 404.900390625 50.4342015196 460.099609375 195.63327167 460.099609375 312.33984375 c 3
 460.099609375 413.000049285 429.047236567 455 364 455 c 3
 320.740626812 455 228.719869707 415 189.5 307.919921875 c 0
 169.259109115 245.096844273 164.504662049 205.388671875 142.799804688 -0.6298828125 c 1
 133.358584136 -13.9404296875 96.9412205511 -1.83984375 87.5 3 c 1
 92.5846354167 109.982421875 115 195.708007812 115 347.849609375 c 3
 115 394.057121127 96.9295485762 440 53 440 c 3
 49.564453125 440 34.9775390625 435.15019451 24.3974609375 427.927734375 c 1
 21.7344976486 434.593162507 12.650390625 453.601625404 12.650390625 479.740234375 c 1
 18.748046875 486.516601562 31.6650390625 496.6796875 52.900390625 496.6796875 c 3
EndSplineSet
Substitution2: "pcap-1" h.pcap
Substitution2: "smcp-1" h.smcp
EndChar
StartChar: mu
Encoding: 956 956 513
Width: 625
Flags: HMW
AnchorPoint: "Bottom" 329 -15 basechar 0
AnchorPoint: "Top" 328 537 basechar 0
LayerCount: 2
Fore
SplineSet
164.599609375 510.099609375 m 1
 157.320810491 421.361673608 146 322.737935767 146 269 c 3
 146 250.889229724 162.92235936 55 266 55 c 3
 417.4796875 55 447.378611298 294.159388944 455.349609375 363 c 2
 471.700195312 504.209960938 l 1
 471.700195312 504.794921875 518.352398629 522.929183063 527.099609375 508.889648438 c 1
 525.66102395 451.283159602 490.349609375 192.045911717 490.349609375 142.76953125 c 3
 490.349609375 88.5198540807 517.349609375 49.01953125 537.849609375 49.01953125 c 3
 553.222405354 49.01953125 557.2678599 96.4180425849 560.099609375 126.259765625 c 1
 610.650390625 122.209960938 l 1
 610.650390625 16.9404296875 568.099609375 -7.259765625 535.900390625 -7.259765625 c 3
 487.963990289 -7.259765625 447.854856542 39.4748093964 439.049804688 99.83984375 c 1
 437.049804688 106.83984375 l 1
 414.699156769 65.3874767064 357.705573971 -1.2099609375 264.950195312 -1.2099609375 c 3
 183.990957874 -1.2099609375 142.626176531 74.2382205758 128 100 c 1
 125.130152947 64.6667414243 110.78091768 -85.4996075225 105.950195312 -164.969726562 c 1
 97.7835040324 -176.076486624 62.6665928251 -168.142903646 49.599609375 -155.450195312 c 1
 51.0746858016 -128.774979407 53.8468591821 -103.032435607 58.599609375 -50.01953125 c 2
 108 501 l 1
 108.744357244 506.887982537 152.684201705 518.129108489 164.599609375 510.099609375 c 1
EndSplineSet
Substitution2: "pcap-1" m.pcap
Substitution2: "smcp-1" m.smcp
EndChar
StartChar: xi
Encoding: 958 958 2239
Width: 580
UnlinkRmOvrlpSave: 1
Flags: HMW
LayerCount: 2
Fore
SplineSet
354 364 m 1
 353.348962149 348.841630894 352.679644165 330.376921894 352 309 c 1
 120 276 115 159.882381896 115 143 c 3
 115 87 140.262296931 42 215 42 c 3
 266.594453662 42 345.303494262 92 443 92 c 3
 530.007791787 92 582 35.2575355041 582 -20.5703125 c 3
 582 -111.962890625 508.400390625 -174.870117188 440.55078125 -174.870117188 c 3
 404.336649267 -174.870117188 369.847557619 -149.415208081 359.500976562 -132.709960938 c 1
 369.807270132 -116.811127357 382.976396015 -95.3824587554 395 -94 c 1
 403.418301648 -101.455932898 423.293758934 -119 442 -119 c 3
 471.756893455 -119 526.350585938 -83.7586253245 526.350585938 -22.41015625 c 3
 526.350585938 20.2418297985 472.397858789 36.2998046875 441.700195312 36.2998046875 c 3
 361.8359375 36.2998046875 296.001953125 -14.51953125 212.900390625 -14.51953125 c 3
 91.5288759745 -14.51953125 60.3505859375 82.9047646831 60.3505859375 142.709960938 c 3
 60.3505859375 196.031355603 89.6650102677 263.155888393 171 311 c 0
 222 341 310 360 415 375 c 1
 416.217840792 362.876864206 410.73910796 325.699113381 401 316 c 1
 371.372284205 311.444444444 316.563593658 299 284 299 c 3
 124.996855377 299 107.75 391.834661256 107.75 446.540039062 c 3
 107.75 584.552734375 313.98828125 690.919921875 484.450195312 690.919921875 c 1
 484.450195312 682.411291275 481.820911638 648.376314016 477 636 c 1
 350 628 321 594 267 594 c 3
 228.672464207 594 155.150390625 628.873122742 155.150390625 680.01953125 c 3
 155.150390625 741.73046875 205.75 775.610351562 269 775.610351562 c 1
 268.253919697 760.383860222 269 734.281136443 258.549804688 719.780273438 c 1
 237.986994125 708.728909307 211 713.148741506 211 680 c 3
 211 673.474792483 250 638 305.30078125 653.900390625 c 1
 311.991682459 638.488427446 318.676939716 622.876520875 325.359375 607.059570312 c 1
 243.157800138 574.962035643 164 509.971917811 164 447 c 3
 164 365.012368259 221 340 354 364 c 1
EndSplineSet
Substitution2: "pcap-1" xi.pcap
Substitution2: "smcp-1" xi.smcp
EndChar
StartChar: psi
Encoding: 968 968 651
Width: 747
UnlinkRmOvrlpSave: 1
Flags: HMW
LayerCount: 2
Fore
SplineSet
280.849609375 696.08984375 m 1
 303.055684775 713.030273438 320.137058079 725.129882812 354.299804688 725.129882812 c 3
 431.02279537 725.129882812 427.5 644.625454641 427.5 544.48046875 c 3
 427.5 263.815776409 398.538461538 37.2337777645 364.75 -174.4296875 c 1
 311 -163.540039062 l 1
 355.138444784 115.647506845 371.450195312 328.664596126 371.450195312 475.509765625 c 3
 371.450195312 642.551492521 367.814815133 669 354 669 c 3
 325.982148548 669 330.666902555 654 314 654 c 3
 289.137961066 654 284.401616474 682.697433576 280.849609375 696.08984375 c 1
17.25 461.280273438 m 1
 34.5 489.110351562 63.25 518.150390625 96.599609375 518.150390625 c 3
 138.145095931 518.150390625 159.450195312 472.759724641 159.450195312 432.709960938 c 3
 159.450195312 373.624758355 134 309.33204935 134 243 c 3
 134 150.08061802 176.032810138 41 389 41 c 3
 518.719044245 41 638.17769364 178 645.200195312 491.530273438 c 1
 701.700195312 498.790039062 l 1
 700.428305859 271.309570312 627.955440116 -14.25 387.650390625 -14.25 c 3
 204.271976433 -14.25 78.2001953125 74.080078125 78.2001953125 243.48046875 c 3
 78.2001953125 317.230105566 102.5 377.230186273 102.5 430.98046875 c 3
 102.5 455.463265965 99.6364303084 460.650390625 96.2001953125 460.650390625 c 3
 85.7998518639 460.650390625 74.5996801397 447.121172866 63.7998046875 432.240234375 c 1
 17.25 461.280273438 l 1
EndSplineSet
Substitution2: "pcap-1" psi.pcap
Substitution2: "smcp-1" psi.smcp
EndChar
StartChar: Upsilon1
Encoding: 978 978 2468
Width: 697
Flags: HW
AnchorPoint: "Top" 335 699 basechar 0
AnchorPoint: "Bottom" 347 -15 basechar 0
LayerCount: 2
Fore
SplineSet
398 379 m 0
 383 286 393 164 404 80 c 0
 409 41 429 36 510 32 c 1
 505 -11 l 1
 402 3 314 9 209 -17 c 1
 197 25 l 1
 276 39 313 52 313 100 c 0
 313 150 313 339 304 380 c 0
 283 473 220 624 96 624 c 3
 75 624 54 616 31 600 c 1
 8 629 l 1
 26 655 78 700 119 700 c 3
 294 700 319 498 352 371 c 1
 381 498 403 700 563 700 c 3
 635 700 674 654 674 595 c 3
 674 535 647 511 609 511 c 3
 597 511 581 511 561 525 c 1
 560 550 568 562 586 586 c 1
 612 571 625 589 625 603 c 3
 625 618 599 624 586 624 c 3
 474 624 412 474 398 379 c 0
EndSplineSet
Position2: "cpsp-1" dx=0 dy=0 dh=50 dv=100
EndChar
StartChar: afii10037
Encoding: 1059 1059 49
Width: 735
Flags: HW
AnchorPoint: "Top" 387 699 basechar 0
AnchorPoint: "Bottom" 339 -15 basechar 0
LayerCount: 2
Fore
SplineSet
350 184 m 1
 320.83323567 246.908131971 218 467 114 608 c 0
 90.9110152865 639.303335044 65 636 6 652 c 1
 10 692 l 1
 67 686 211 679 269 690 c 1
 274 651 l 1
 274 651 252 649 237 649 c 0
 219 649 206.582576937 640.41594388 215 622 c 0
 301.431389027 432.902268082 387.037557621 291.083762581 411.591796875 252 c 1
 350 184 l 1
200 -9 m 3
 178.467025162 -9 144.822037338 4 128 30 c 1
 129.224609375 61.640625 128 61.640625 188 105 c 1
 206.055764223 96.8568863407 216.865559896 86 238 86 c 3
 317.810089278 86 336.07010687 162.712395137 402 293 c 0
 451.561643836 395 533.018821522 584.00807699 536 589 c 0
 548.15436427 608.906567489 553.713947589 632.285855171 528 643 c 0
 516 648 497 650 481 652 c 1
 483 691 l 1
 521 685 664 676 729 690 c 1
 729 647 l 1
 664 645 638.135663177 627.868544705 611 600 c 1
 555.439804079 527.66944795 491.49440454 399.236368455 434.656331148 277.00000544 c 0
 370.044573839 138.045502759 337.939048991 -9 200 -9 c 3
EndSplineSet
Position2: "cpsp-1" dx=0 dy=0 dh=50 dv=100
EndChar
StartChar: afii10044
Encoding: 1066 1066 56
Width: 728
Flags: HW
LayerCount: 2
Fore
SplineSet
456 349 m 0
 339 349 l 1
 340 251 340.405273438 155.012695312 342 96 c 0
 343 59 347.606445312 44.9228515625 374 41 c 0
 387.45703125 39 448.012695312 34 483 34 c 3
 562.505859375 34 623 83 623 178 c 3
 623 262 574.810546875 349 456 349 c 0
277.505859375 683.529296875 m 3
 320.064453125 683.529296875 367.725585938 686.141601562 422 692 c 1
 424 649 l 1
 379.33984375 647 348.999023438 651.977539062 347 616 c 0
 341.870117188 523.665039062 341 379 341 379 c 1
 412.017578125 379 474.251953125 379.70703125 533 371.883789062 c 0
 648.134765625 356.551757812 713 273.93359375 713 181 c 3
 713 70 619.59765625 -4 474 -4 c 3
 411.724609375 -4 352.974609375 2 286 2 c 3
 227 2 182 -2 175 -2 c 1
 172 34 l 1
 219 36 256 35.9462890625 256 73 c 0
 256 78 259 176 259 292 c 3
 259 462.579101562 258.000976562 530.958984375 255 616 c 0
 254.435546875 633.98046875 239 643 228 643 c 3
 193.272460938 643 160.211914062 641.639648438 126 637 c 0
 80.3701171875 630.8125 77.1494140625 637 41 565 c 1
 2 584 l 1
 21.3330078125 619.935546875 49.3662109375 692.728515625 60 713 c 1
 83 695 105.003690602 685.378037341 127 685 c 0
 185.185546875 684 253.010742188 683.529296875 277.505859375 683.529296875 c 3
EndSplineSet
Position2: "cpsp-1" dx=0 dy=0 dh=50 dv=100
EndChar
StartChar: afii10049
Encoding: 1071 1071 61
Width: 738
Flags: HW
AnchorPoint: "Top" 423 699 basechar 0
AnchorPoint: "Bottom" 362 -15 basechar 0
LayerCount: 2
Fore
SplineSet
529 360 m 1
 531 438.163 534.845794535 535.024321176 526 613 c 0
 522 648.26 459 654 428 654 c 0
 312 654 251 611.903225806 251 538 c 3
 251 471.568493151 288.12 355 475 355 c 0
 496.495145631 355 507.504854369 359 529 360 c 1
695 686 m 1
 695 649 l 1
 632 647 621 635 616 598 c 1
 610 390 609 301 619 69 c 1
 623 38 638 36 691 34 c 1
 684 -7 l 1
 603 9 523 7 443 -10 c 1
 435 34 l 1
 490 39 514.650457524 44.0205509755 517 81 c 0
 522 159.695 524 226.732 529 320 c 1
 480.25 315.795 426.657 308.046 401.5 314.094 c 1
 339.815 147.88 203.361 -37.8889 37 -33 c 1
 30 4 l 1
 151.896 5.97004 216.537 135.028 313.5 330.094 c 1
 235.725 354.537 164 417.114 164 510 c 0
 164 613 274 696 407 696 c 0
 486 696 515 684 584 684 c 0
 627 684 652 685 695 686 c 1
EndSplineSet
Position2: "cpsp-1" dx=0 dy=0 dh=50 dv=100
EndChar
StartChar: afii10076
Encoding: 1082 1082 86
Width: 473
Flags: HW
AnchorPoint: "Bottom" 248 -15 basechar 0
AnchorPoint: "Top" 246 465 basechar 0
LayerCount: 2
Fore
SplineSet
99.1924 321.732 m 0
 89.6152 365.95 84.3121 366.714 36.3643 375.852 c 1
 40.3848 401.449 l 1
 90.3643 394.215 166.987 396.023 216.002 401.944 c 1
 218.133 375.367 l 1
 186.405 371.497 175.571 373.231 170.203 332.756 c 1
 166.605 285.933 168 264.163 167 211 c 1
 202.172 243.143 253.929538102 289.429253379 287 328 c 0
 292.772 334.732 301 348 301 355 c 3
 301 373 284.058823529 372 277 374 c 1
 279 401 l 1
 302.045454545 399 333.068181818 399 357 399 c 3
 378.694444444 399 406.962962963 399 428 403 c 1
 430 373 l 1
 399.395522388 365.731 358.895766542 342.739618472 333 319 c 2
 243.5 236.952 l 1
 333.305044779 173.635001123 390.080867319 9.25098403853 453.900390625 7.8994140625 c 1
 449 -18 l 1
 300 -47 268 175 179 185 c 1
 169 177 l 1
 169 124.725 172.306024313 74.2048176505 175 54 c 0
 177 39 185.619315018 37.1522739927 196 33 c 0
 206 29 216 28 230 27 c 1
 225 -7 l 1
 191 -1 172 4 130 4 c 3
 100 4 64 -3 34 -5 c 1
 32 28 l 1
 43 29 54.2438024311 30.030722479 64 33 c 0
 87 40 93.3132247115 48.0575369992 96 76 c 0
 101 128 105 170 105 235 c 3
 105 251.155 103.358792487 302.49573648 99.1924 321.732 c 0
EndSplineSet
EndChar
StartChar: afii10086
Encoding: 1092 1092 96
Width: 766
Flags: HW
LayerCount: 2
Fore
SplineSet
524 355 m 3
 477.621621622 355 449.972972973 336 425 321 c 1
 427 64 l 1
 456.672268908 46 489.941176471 31 534 31 c 3
 607.276595745 31 657 85 657 170 c 3
 657 262 604.152317881 355 524 355 c 3
244 359 m 3
 189.832501688 359 128 299.839710385 128 226 c 3
 128 136 177.974683544 44 269 44 c 3
 304.774509804 44 336.18627451 60 358 80 c 1
 359 154 362 231 362 306 c 0
 362 337 336.71643389 338.87962389 312 346 c 0
 290.43902439 352 252.292682927 359 244 359 c 3
427 355 m 1
 466.62745098 376 521.921568627 402 568 402 c 3
 654.907514451 402 723 300 723 208 c 3
 723 75 612.113924051 -10 504 -10 c 3
 477.275862069 -10 451.413793103 -2 429 7 c 1
 429 -75 429.065494455 -246.991208409 434 -284 c 0
 436 -299 454.976148957 -303.31100931 466 -304 c 0
 482 -305 501 -307 515 -308 c 1
 514 -342 l 1
 475 -341 444 -339 402 -339 c 3
 372 -339 324 -344 294 -348 c 1
 291 -316 l 1
 302 -315 310.181710014 -313.822162605 321 -311 c 0
 344 -305 349.496992263 -293.959523463 352 -266 c 0
 357 -210.148148148 361 -111.333333333 361 53 c 1
 320.487804878 23 268.006097561 -5 210 -5 c 3
 120.429447853 -5 64 79 64 172 c 3
 64 296.686117884 169.29057321 405 273 405 c 3
 296.4375 405 349.875 388 363 386 c 1
 363 504 361 562.992063992 361 626 c 0
 361 642 354 656 337 656 c 3
 331 656 306 650 296 649 c 1
 288 681 l 1
 340 692 399 720 442 754 c 1
 462 738 l 1
 456 724 449.456332062 696.948931314 448 686 c 0
 434.221721119 582.412752976 428.979703173 469.237100731 427 355 c 1
EndSplineSet
EndChar
StartChar: afii10101
Encoding: 1108 1108 111
Width: 468
UnlinkRmOvrlpSave: 1
Flags: HW
LayerCount: 2
Fore
SplineSet
87 212.046875 m 1
 163.0390625 213.502929688 283.255859375 219.407226562 328 232 c 1
 331 182 l 1
 307.78125 184.811523438 270.50390625 187.745117188 229 187.745117188 c 3
 182.024414062 187.745117188 129.59765625 187.533203125 87 184.49609375 c 1
 87 212.046875 l 1
EndSplineSet
Refer: 207 99 N 1 0 0 1 0 0 2
EndChar
StartChar: afii10106
Encoding: 1113 1113 116
Width: 625
Flags: HW
LayerCount: 2
Fore
SplineSet
443 214 m 0
 423.985074627 215 394 215 394 215 c 1
 394 160.463768116 394.787514335 106.94959863 396 73 c 0
 397 45 400.852908824 37.9290803343 414 32 c 0
 418.434782609 30 453.913043478 25 465 25 c 3
 511.386666667 25 536 60.5813953488 536 115 c 1
 536 165 507.409354378 210.612694864 443 214 c 0
327.431640625 203.905273438 m 3
 327.431640625 248.683116478 324.284076647 296.550303831 320.799804688 348.799804688 c 0
 320.099609375 359.299804688 310.4296875 369.099609375 303.299804688 369.099609375 c 3
 283.484375 369.099609375 267.185892239 370.587862913 245.099609375 364.900390625 c 0
 234.50390625 362.171875 220.563063801 351.832794235 218.474609375 333.400390625 c 0
 214.010742188 294.002929688 202.272066617 217.617885517 196.799804688 161 c 0
 191.569335938 106.883789062 179.362155417 55.57764841 150.599609375 30.099609375 c 0
 126.594726562 8.8359375 103.649414062 -6.2998046875 67.2001953125 -6.2998046875 c 3
 51.080078125 -6.2998046875 25.8935546875 1.400390625 13.2998046875 16.7998046875 c 1
 14.1572265625 51.6044921875 13.2998046875 51.6044921875 55.2998046875 99.2998046875 c 1
 75.0166015625 90 86.8212890625 77.599609375 109.900390625 77.599609375 c 3
 143.262695312 77.599609375 157.257023236 122.908963495 161.885742188 157.166992188 c 0
 175.8359375 260.415039062 185.161132812 379.056640625 185.5 410.799804688 c 1
 204.483398438 406.75 222.648447778 404.9193904 240.799804688 404.5 c 0
 271.104492188 403.799804688 333.030273438 403.470703125 341.954101562 403.470703125 c 3
 368.998046875 403.470703125 374.040039062 403.299804688 452.200195312 409.400390625 c 1
 453.599609375 373.299804688 l 1
 424.715820312 371.900390625 407.817481029 378.691832361 403.799804688 350.200195312 c 0
 399.446603318 319.329158706 396.367509267 280.889377852 395 234 c 1
 441.580152672 234 476.971901709 237.439793985 508 231 c 0
 565.818181818 219 614 177 614 121 c 1
 614 46.6 555.589403974 -3 467 -3 c 3
 433.318181818 -3 390.136363636 1 353 1 c 3
 311 1 270.2 -5 263 -6 c 1
 260 26 l 1
 276.085106383 26.8787878788 323 29.5151515152 323 55 c 0
 323 57.6354915653 327.431640625 122.205034915 327.431640625 203.905273438 c 3
EndSplineSet
EndChar
StartChar: afii57793
Encoding: 1460 1460 2496
Width: 0
Flags: HW
AnchorPoint: "HbBottom" 286 0 mark 0
LayerCount: 2
Fore
SplineSet
270.444335938 -20.9775390625 m 1
 288.05344109 -22.8575810279 305.125417083 -29.5350976817 321.892578125 -38.9462890625 c 1
 318.417079667 -62.7040535154 311.048367695 -77.5347877133 301 -93 c 1
 281.409247652 -90.5117259303 262.590586454 -83.4851715458 248.017578125 -74.7021484375 c 1
 250.597471591 -54.2253712606 254.398111305 -36.306422061 270.444335938 -20.9775390625 c 1
EndSplineSet
EndChar
StartChar: afii57667
Encoding: 1491 1491 129
Width: 527
Flags: HW
AnchorPoint: "HbTopLeft" 71.958 638.023 basechar 0
AnchorPoint: "HbBottom" 271.2 0 basechar 0
AnchorPoint: "HbMiddle" 249.73 272.52 basechar 0
AnchorPoint: "HbTop" 268.94 638.023 basechar 0
LayerCount: 2
Fore
SplineSet
104.204101562 589.841796875 m 3
 226.594726562 589.841796875 430.166981549 582.913085938 469.447265625 574.69921875 c 1
 478.803710938 565.139648438 489.330078125 555.58203125 497.516601562 546.0234375 c 1
 494.83733038 536.279127448 492.509164938 526.674312743 490.653320312 517.11328125 c 1
 473.787109375 504.452264325 458.864257812 491.816768966 446.112304688 479.18359375 c 1
 448.200061358 304.333720614 441.860303121 145.064712226 426 36 c 1
 420.138453261 18.8500452812 413.910675164 1.04000966031 409.1484375 -14.130859375 c 1
 363.678710938 2.220703125 l 1
 391.787109375 146.411160795 389.89453125 391.238985151 389.89453125 501.869140625 c 1
 396.981379442 510.410682253 405.486393995 518.00368097 412.573242188 525.596679688 c 1
 309.477968516 531.172851562 171.887308322 533.561523438 115.052734375 532.764648438 c 1
 80.6981309988 532.764648438 45.2586454108 549.43359375 27.52734375 583.883789062 c 1
 34.5400390625 620.1015625 l 1
 72.19140625 616.126953125 l 1
 72.19140625 616.126953125 96.4765625 589.841796875 104.204101562 589.841796875 c 3
EndSplineSet
EndChar
StartChar: afii57672
Encoding: 1496 1496 134
Width: 586
Flags: HW
AnchorPoint: "HbTopLeft" 67.4385 638.023 basechar 0
AnchorPoint: "HbBottom" 246.34 0 basechar 0
AnchorPoint: "HbMiddle" 276.85 292.52 basechar 0
AnchorPoint: "HbTop" 265.55 638.023 basechar 0
LayerCount: 2
Fore
SplineSet
266.1171875 58.146484375 m 0
 306.966981068 57.9110086083 365.066634217 119.975893197 396 162 c 0
 433.946549583 213.551773049 486 318.357730497 486 414 c 3
 486 495.886576918 444.423771962 538 422 538 c 3
 392.298515124 538 360.990700852 467.257642895 314.895507812 348.004882812 c 1
 264.012695312 372.77734375 l 1
 337.3671875 579.607421875 390.0703125 591.42578125 437.083984375 591.42578125 c 3
 462.646484375 591.42578125 541.90234375 545.418945312 541.90234375 413.401367188 c 3
 541.90234375 264.579101562 453.297399379 125.291528759 372.131835938 53.7666015625 c 0
 338.743164062 24.34375 302.55078125 1.1953125 269.934570312 1.1953125 c 0
 110.174804688 0 l 1
 81.7158203125 -13.142578125 l 1
 70.5400390625 -9.79370127585 59.3642578125 -3.61765993534 48.1884765625 -0.1953125 c 1
 53.4267578125 32.7529296875 l 1
 89.8878356156 63.2959721343 129.859867284 58.93193013 266.1171875 58.146484375 c 0
76.21484375 589.62109375 m 1
 118.156796942 579.91155544 207.607634644 552.392429931 228.53125 525.295898438 c 0
 233.51590106 518.840668205 218.56723285 491.959041063 217 490 c 0
 205 475 188.72665206 465 176 465 c 3
 113.623377975 465 106 425.659441397 106 317 c 3
 106 219.669266544 115.500257894 120.255727755 116 47 c 1
 95.6427025526 36.0695609747 78.8777723823 27.1587156181 60.296875 16.7275390625 c 1
 59.5977566742 111.442951186 50.4404296875 235.268018982 50.4404296875 317.079101562 c 3
 50.4404296875 373.422711507 54.4654932223 419.712678703 58.986328125 434.232421875 c 0
 84 514.569815132 158.148765444 519.048904559 177 520 c 1
 178 498 l 1
 164 502 l 1
 44 544 7.2890625 561.50943128 7.2890625 581.166015625 c 3
 7.2890625 586.947337444 12.1184982961 608.514842733 14.12109375 623.46484375 c 1
 59 614 l 1
 76.21484375 589.62109375 l 1
EndSplineSet
EndChar
StartChar: afii57674
Encoding: 1498 1498 136
Width: 548
Flags: HW
AnchorPoint: "HbTopLeft" 73.0889 638.023 basechar 0
AnchorPoint: "HbBottom" 254.25 0 basechar 0
AnchorPoint: "HbMiddle" 257.64 292.52 basechar 0
AnchorPoint: "HbTop" 251.99 638.023 basechar 0
LayerCount: 2
Fore
SplineSet
166.646484375 587.635742188 m 3
 277.276537466 587.635742188 421.632521731 579.165039062 458.01171875 574.69921875 c 1
 463.254882812 519.737304688 467.1875 464.77734375 469.80859375 411.01171875 c 1
 476.362304688 277.193359375 478.984375 150.544921875 478.984375 40.6240234375 c 0
 478.984375 -21.099998476 474.490514429 -77.6782498664 470 -125 c 1
 464.68394172 -142.222712911 459.035476157 -159.445425821 454.715820312 -174.372070312 c 1
 410.6875 -164.155273438 l 1
 434.985821678 82.4250527513 417.395973685 339.708158043 406.28125 522.072265625 c 1
 310.647704813 530.436523438 207.059548908 532.825195312 154.673828125 532.825195312 c 3
 114.433220553 532.825195312 62 530 32.1484375 584.883789062 c 1
 42.162109375 620.1015625 l 1
 77.552734375 618.447265625 l 1
 102 588 94.610442803 587.635742188 166.646484375 587.635742188 c 3
EndSplineSet
EndChar
StartChar: afii57675
Encoding: 1499 1499 137
Width: 529
Flags: HW
AnchorPoint: "HbTopLeft" 137.498 638.023 basechar 0
AnchorPoint: "HbBottom" 232.78 0 basechar 0
AnchorPoint: "HbMiddle" 246.34 292.52 basechar 0
AnchorPoint: "HbTop" 259.9 638.023 basechar 0
LayerCount: 2
Fore
SplineSet
372.990234375 561.556640625 m 0
 386.076171875 554.974609375 422.853252325 487.925899462 442.461914062 437.295898438 c 0
 452.641601562 411.01171875 485.71875 333.1953125 485.71875 264.05078125 c 3
 485.71875 172.004882812 343.526367188 -2.3896484375 285.392578125 -2.3896484375 c 3
 228.036273643 -2.3896484375 137.598632812 -5.9736328125 137.598632812 -5.9736328125 c 1
 78.61328125 -31.0654296875 l 1
 43.2568359375 -12.701171875 l 1
 58.8564453125 21.2451171875 l 1
 116.595537033 53.063476562 129.684629427 54 279 54 c 3
 304.268803096 54 430 193.819077774 430 263 c 3
 430 294.982246053 406.394274854 373.667860711 395 406 c 0
 378.931389533 451.595929398 356.154272487 498.762359872 338.307617188 513.688476562 c 0
 326.102781644 522.861891225 223.721430787 528.184421632 174 533 c 0
 148.300248454 535.489050811 102.926571845 559.262471 93.93359375 579.439453125 c 1
 97.7685546875 614.126953125 l 1
 141.298828125 614.28515625 l 1
 175 588 l 1
 189 584 340.03251654 578.13388079 372.990234375 561.556640625 c 0
EndSplineSet
EndChar
StartChar: afii57680
Encoding: 1504 1504 142
Width: 372
Flags: HW
AnchorPoint: "HbMiddle" 170.63 292.52 basechar 0
AnchorPoint: "HbTopLeft" 119.418 638.023 basechar 0
AnchorPoint: "HbBottom" 193.23 0 basechar 0
AnchorPoint: "HbTop" 201.14 638.023 basechar 0
LayerCount: 2
Fore
SplineSet
84.6611328125 611.153320312 m 1
 100.324268331 607.205625679 115.98740385 603.257931046 131.6484375 599.3125 c 1
 136.892578125 592.142578125 144.756835938 584.973632813 150 579 c 1
 210.619854999 568.883262743 272.50054096 557.923027001 310.387695312 530.1015625 c 1
 290 478 l 1
 277.743101332 485.950974582 265.488343981 492.765447519 253.231445312 499.581054688 c 1
 138 526 112.080112473 523.255693155 80 572 c 1
 75.3382816547 581.788406023 79.5760743476 596.471015058 84.6611328125 611.153320312 c 1
76 28 m 1
 116.944950156 60.9101336861 135.064649757 58.590443967 253 58 c 1
 270.104449353 95.2352820482 280 142.654528045 280 196 c 3
 280 262.960666307 261.384629277 409.543550975 242 510 c 1
 297.760742188 517.348632812 l 1
 302.960768325 486.424804688 308.387604295 455.764933909 312.784179688 425.348632812 c 0
 324.182617188 346.4921875 334.706054688 267.634765625 334.706054688 195.947265625 c 0
 334.706054688 124.258789062 321.5 58.544921875 285.482421875 3.5849609375 c 1
 141.8203125 2.3896484375 l 1
 99.833984375 -22.701171875 l 1
 62.91796875 0.662109375 l 1
 76 28 l 1
EndSplineSet
EndChar
StartChar: uni1FBF
Encoding: 8127 8127 1896
Width: 198
Flags: HW
AnchorPoint: "Top" 100 537 mark 0
LayerCount: 2
Fore
SplineSet
40.8369140625 566 m 1
 39.8369140625 622 l 1
 68.3180519792 622 98.8369140625 634.622583574 98.8369140625 662 c 3
 98.8369140625 701.237532151 67.6214464661 693.409592386 39.6005859375 705.799804688 c 0
 35.6602592759 707.542131046 34 713 34 717.799804688 c 3
 34 722.599609375 35.9922025528 725.846167979 39.6005859375 728.200195312 c 0
 49.256986092 734.499811368 73.2750578747 766.14598546 74 782.599609375 c 0
 74.189640707 786.903783134 80.4003906253 789.799804688 85.2001953125 789.799804688 c 3
 90.0000000003 789.799804688 94.8053901275 788.124284672 96.400390625 786.599609375 c 0
 105.254497188 778.13588941 173.836914062 759.302600419 173.836914062 682 c 3
 173.836914062 589.406113383 100.211914063 566 40.8369140625 566 c 1
EndSplineSet
EndChar
StartChar: quotereversed
Encoding: 8219 8219 668
Width: 200
Flags: HW
LayerCount: 2
Fore
SplineSet
141.796875 449.063476562 m 1
 83.853515625 487.177734375 38 551.391601562 38 605 c 3
 38 616.578125 40.7158203125 646.01171875 50.3662109375 655.30078125 c 0
 59.8818359375 664.4609375 76.4150390625 681.904296875 86.75 694.00390625 c 0
 90.2841796875 698.141601562 95.6416015625 702.649414062 102.309570312 702.649414062 c 3
 107.004882812 702.649414062 115.892578125 698.416015625 118.965820312 694.00390625 c 0
 129.087890625 679.474609375 142.348632812 666.747070312 150.397460938 658.236328125 c 0
 154.240234375 654.172851562 158.870117188 649.956054688 158.870117188 642.859375 c 3
 158.870117188 637.36328125 155.706054688 631.818359375 152.397460938 629.118164062 c 0
 136.908203125 617.201171875 100 600.423828125 100 586 c 3
 100 562.840820312 140.313476562 515.517578125 173 495 c 1
 141.796875 449.063476562 l 1
EndSplineSet
Position2: "Extra space for context kern-1" dx=35 dy=0 dh=70 dv=0
Position2: "cpsp-1" dx=0 dy=0 dh=7 dv=14
EndChar
StartChar: daggerdbl
Encoding: 8225 8225 252
Width: 442
Flags: HW
LayerCount: 2
Fore
SplineSet
194 369 m 1
 194 433.545454545 194 451.727272727 194 509 c 1
 124 509 l 2
 68.7994101679 509 73 509 47 509 c 3
 33.9619140625 509 7 524.954545454 7 535 c 3
 7 545.955555556 35.9580078125 564 48 564 c 3
 73 564 73.8452610735 564 124 564 c 2
 194 564 l 1
 194 630 l 2
 194 663.43351836 194 683.56097561 194 702 c 3
 194 718 211.422222222 741 222 741 c 3
 232.577777778 741 250 718 250 704 c 3
 250 683.738095238 250 662.682595429 250 630 c 2
 250 564 l 1
 320 564 l 2
 375.191511629 564 370 564 396 564 c 3
 408.165039062 564 437 547.431818182 437 537 c 3
 437 526.422222222 408.038085938 509 395 509 c 3
 370 509 370.163543819 509 320 509 c 2
 250 509 l 1
 250 452.636363636 250 434.454545455 250 369 c 1
 250 304.331210191 250 283.382165605 250 226 c 1
 319 226 l 2
 374.189034476 226 370 226 396 226 c 3
 409.038085938 226 436 210.045454546 436 200 c 3
 436 189.044444444 407.041992188 171 395 171 c 3
 370 171 369.154738926 171 319 171 c 2
 249 171 l 1
 249 105 l 2
 249 71.5664816405 249 51.4390243902 249 33 c 3
 249 17 231.577777778 -6 221 -6 c 3
 210.422222222 -6 193 17 193 31 c 3
 193 51.2619047619 193 72.3174045706 193 105 c 2
 193 171 l 1
 123 171 l 2
 67.8084883705 171 73 171 47 171 c 3
 34.8349609375 171 6 187.568181818 6 198 c 3
 6 208.577777778 34.9619140625 226 48 226 c 3
 73 226 72.8264694458 226 123 226 c 2
 194 226 l 1
 194 282.47133758 194 303.420382166 194 369 c 1
EndSplineSet
EndChar
StartChar: afii61248
Encoding: 8453 8453 153
Width: 803
Flags: HW
LayerCount: 2
Fore
SplineSet
591 363 m 3
 705 363 771 267 771 181 c 3
 771 86 700 -8 591 -8 c 3
 494 -8 409 69 409 171 c 3
 409 297 518 363 591 363 c 3
573 323 m 3
 517.772727273 323 483 258.061538462 483 189 c 3
 483 110.006369427 538.873015873 30 611 30 c 3
 667.30952381 30 697 102.03649635 697 169 c 3
 697 262.426666667 630.93442623 323 573 323 c 3
283 589 m 1
 268 603 222 638 190 638 c 3
 138.37804878 638 107 584 107 506 c 3
 107 428 156.411764706 366 227 366 c 3
 257 366 279 381 304 402 c 1
 328 367 l 1
 294 344 253 320 204 320 c 3
 161 320 36 351 36 490 c 3
 36 599 121 686 221 686 c 3
 267 686 313 664 332 648 c 1
 324 610 328 612 283 589 c 1
EndSplineSet
Refer: 362 8260 N 1 0 0 1 160 81 2
EndChar
StartChar: trademark
Encoding: 8482 8482 777
Width: 690
Flags: HW
LayerCount: 2
Fore
SplineSet
83.7841796875 683.15625 m 0
 147.795806847 679.707355875 214.721601649 678.25372448 280.1640625 681.883789062 c 0
 286.565957419 682.238899364 290.843723539 684.793895174 293.634765625 688.311523438 c 1
 306 680.310546875 l 1
 299.325892318 659.951100751 292.432781103 643.915143185 290.989257812 612.407226562 c 1
 268.319335938 615.317382812 l 1
 268.319335938 615.086381279 268.278812781 622.422929986 269.194335938 627.084960938 c 1
 277.460733935 659.877992605 214.195417074 655.914428345 199.953125 653.587890625 c 1
 193.84425424 593.253250621 189.351066207 554.5232433 196.3125 487.268554688 c 0
 199.954042746 452.08746546 198.605526916 455.182710113 231.586914062 449.278320312 c 1
 228.673828125 428.544921875 l 1
 187.09343025 436.189475679 123.254587043 433.640474033 85.5341796875 424.904296875 c 1
 81.8974609375 447.944335938 l 1
 116.324111879 456.954397532 117.882851923 462.252520783 121.098632812 477.442382812 c 0
 128.726324708 513.472072484 135.208037056 629.589700338 119.829101562 653.407226562 c 1
 89.3642763096 655.826217778 87.814218003 655.86393241 67.8720703125 644.801757812 c 0
 51.9437354321 635.966098573 54.875900524 640.05725351 33.49609375 610.344726562 c 1
 14.703125 618.8359375 l 1
 27.4944204462 645.298877096 40.3194654847 679.702298568 46.3857421875 694.134765625 c 1
 52.6764494199 689.543049967 59.970216273 684.439326874 83.7841796875 683.15625 c 0
666.16015625 429.033203125 m 1
 637.044685904 434.618884365 572.158751989 435.105201645 535.758789062 428.0625 c 1
 533.213867188 446.733398438 l 1
 577.953521857 449.363239571 575.080000001 452.106938016 570.586914062 528.763671875 c 0
 568.594360631 562.758712296 569.978897758 556.410704748 566.216796875 594.46875 c 1
 539.421296875 565.495693365 533.614736103 556.326991036 513.654296875 510.538085938 c 0
 502.855184427 485.765107279 491.975071136 451.864462793 488.14453125 431.111328125 c 1
 465.037109375 431.111328125 l 1
 464.530606654 457.734484695 452.676542965 490.239494169 441.771484375 513.935546875 c 1
 443.73796642 512.000554206 397.232891034 595.000739767 395.56640625 584.05078125 c 1
 387.593732269 538.065172305 381.922051259 548.301943525 381.24609375 498.971679688 c 0
 380.6235987 453.543017897 402.227926917 449.886266947 421.530273438 444.791015625 c 1
 419.104492188 425.392578125 l 1
 392.289389697 429.890209713 343.0764016 431.46998542 309.953125 425.150390625 c 1
 308.5 444.4296875 l 1
 331.066034025 448.589475008 343.474785217 445.007342709 348.736328125 494.163085938 c 1
 348.770827345 491.891194251 364.964961031 590.213134446 365.314453125 586.389648438 c 1
 365.641941064 614.678502299 363.346525601 631.481915493 353.859375 646.881835938 c 0
 345.838262158 659.902025544 338.230516098 666.687559225 319.775390625 669.249023438 c 1
 323.29296875 689.861328125 l 1
 343.509220321 686.830247185 388.779823456 684.159675872 410.110351562 684.887695312 c 1
 422.054402635 685.223693599 422.390710864 673.873781354 426.323242188 664.966796875 c 0
 451.776772552 607.315838434 465.356288752 591.847849585 498.361328125 545.754882812 c 1
 500.156836966 536.700874422 580.246657185 679.481116241 580.865234375 680.645507812 c 0
 582.926637298 684.52583225 586.68015911 686.775267993 590.321289062 686.34375 c 0
 608.763450089 684.158130588 646.265277534 685.249939553 664.5859375 687.071289062 c 1
 666.524414062 667.793945312 l 1
 638.864330547 669.65194981 627.654160238 661.25683335 630.299804688 606.466796875 c 0
 632.215731829 566.788858308 630.59960581 537.258580832 631.806640625 525.732421875 c 0
 638.815637492 458.802445179 646.180634201 449.887741728 666.765625 449.5234375 c 1
 666.16015625 429.033203125 l 1
EndSplineSet
EndChar
StartChar: partialdiff
Encoding: 8706 8706 633
Width: 464
UnlinkRmOvrlpSave: 1
Flags: HW
LayerCount: 2
Fore
SplineSet
268 702 m 3
 388.737304688 702 440 588.3203125 440 461 c 3
 440 116.124023438 314.014648438 -9 177 -9 c 3
 69.9765625 -9 32 81.845703125 32 141 c 0
 32 312.795133252 160.800339958 409 287 409 c 3
 336.673828125 409 387.995117188 374.107077206 394 361 c 1
 370 291 l 1
 369.583984375 337.846031688 313.961914062 378 277 378 c 3
 158.623411458 378 111 257.412115188 111 173 c 3
 111 106.502929688 145.416015625 31 202 31 c 3
 256 31 367 114.999023438 367 472 c 3
 367 621.176757812 311.520507812 662 255 662 c 3
 208.728515625 662 169.442382812 639.706054688 142 613 c 1
 134 620 130 624 122 631 c 1
 156.247070312 672.359375 222.9296875 702 268 702 c 3
EndSplineSet
EndChar
StartChar: uni2219
Encoding: 8729 8729 2032
Width: 318
Flags: HW
LayerCount: 2
Fore
SplineSet
70 218 m 0
 70 272 114 307 159 307 c 0
 214 307 248 262 248 217 c 0
 248 170 211 129 159 129 c 0
 113 129 70 165 70 218 c 0
EndSplineSet
EndChar
StartChar: proportional
Encoding: 8733 8733 650
Width: 606
UnlinkRmOvrlpSave: 1
Flags: HW
LayerCount: 2
Fore
SplineSet
528.635742188 65.2119140625 m 3
 362.631835938 65.2119140625 288.676757812 306.791015625 162.77734375 309.70703125 c 0
 114.3359375 310.829101562 77.0205078125 262.848632812 77.0205078125 207.325195312 c 3
 77.0205078125 151.364257812 116.732421875 105.936523438 168.526367188 105.936523438 c 3
 286.641601562 105.936523438 348.575195312 274.198242188 452 338.114257812 c 0
 483.383789062 357.508789062 509.989257812 362 553 362 c 1
 553 324 l 1
 523.430664062 323.421875 502.598632812 321.171875 480 308.412109375 c 0
 377.916992188 250.772460938 313.416015625 69.3759765625 172.668945312 69.3759765625 c 3
 93.013671875 69.3759765625 42.8671875 137.7734375 42.8671875 217.883789062 c 3
 42.8671875 301.290039062 97.205078125 365.767578125 180.959960938 365.767578125 c 3
 358.004313919 365.767578125 416.984680137 133 553 133 c 1
 553 66 l 1
 546 65 537.969726562 65.2119140625 528.635742188 65.2119140625 c 3
EndSplineSet
EndChar
StartChar: lessequal
Encoding: 8804 8804 495
Width: 533
Flags: HW
LayerCount: 2
Fore
SplineSet
463.5 317.685546875 m 1
 441 241 l 1
 72 353.857421875 l 1
 70 426.767578125 l 1
 447 541 l 1
 463 484.487304688 l 1
 182.5 401.890625 l 1
 463.5 317.685546875 l 1
EndSplineSet
Refer: 511 8722 N 1 0 0 1 0 -124 2
Position2: "'case' vertical ajustments for all-caps-1" dx=0 dy=90 dh=0 dv=0
EndChar
StartChar: uni2619
Encoding: 9753 9753 2049
Width: 1004
UnlinkRmOvrlpSave: 1
Flags: HW
LayerCount: 2
Fore
SplineSet
832 360 m 1
 801 373 l 1
 830.547851562 397 842 435.810546875 842 473 c 3
 842 519.818359375 817.521484375 527 799 527 c 3
 767.033203125 527 750 490.467773438 750 467 c 3
 750 299.23046875 971 287.998046875 971 137 c 3
 971 94.3515625 956.185546875 71.490234375 946 30 c 1
 916.201171875 47.466796875 876.6328125 63.3427734375 869 87 c 1
 871.036969866 98.6004909939 874 123.047485351 874 148 c 3
 874 273.287657729 714 292.926754732 714 476 c 3
 714 510.340820312 739.73828125 563 792 563 c 3
 828.016601562 563 872 542.036132812 872 478 c 3
 872 444.532226562 866.333007812 404.237304688 832 360 c 1
828 643.067382812 m 1
 852 700.490234375 l 1
 915.66796875 675.018554688 960 618.465820312 960 533 c 3
 960 411.457192096 836.084054129 353.604840686 678 267 c 1
 724.286132812 259.05859375 786 199.165039062 786 132 c 3
 786 61.765625 737.708984375 -12 651 -12 c 3
 495.793945312 -12 408.279296875 42 252 42 c 3
 209.4296875 42 187.30859375 40 145 40 c 3
 93.4619140625 40 51 75.9609375 51 120 c 3
 51 162.31640625 54.375 183.461914062 78 219 c 1
 96.8828125 219.05859375 122.857421875 191.159179688 150 159 c 1
 136.286132812 139.799804688 114 131.7109375 114 111 c 3
 114 92.169921875 132.063476562 75 159 75 c 3
 197.622070312 75 226.114257812 107.84375 237 159 c 0
 286.27734375 390.569335938 340.92578125 547 475 547 c 3
 545.271484375 547 627 507.708007812 627 404 c 3
 627 305.7890625 600 294.384765625 413 199 c 1
 406.555664062 184.366210938 401.491210938 173.06640625 399 165 c 1
 609.147239264 274.568179777 918 390.922413793 918 524 c 3
 918 600.9765625 864.760742188 634.026367188 828 643.067382812 c 1
EndSplineSet
EndChar
StartChar: female
Encoding: 9792 9792 339
Width: 500
UnlinkRmOvrlpSave: 1
Flags: HMW
LayerCount: 2
Fore
SplineSet
81 24 m 1
 101 24 l 1
 115.416912499 10.7395453574 187.624327267 4 251.87890625 4 c 3
 312.133953087 4 373.360476934 10.5961022541 400 24 c 1
 421 24 l 1
 421 -57 l 1
 400 -57.123046875 l 1
 373.201260711 -41.5314045433 311.526996602 -33.97265625 251.443359375 -33.97265625 c 3
 184.151483133 -33.97265625 118.726092129 -42.4640183291 100 -58.888671875 c 1
 81 -59 l 1
 81 24 l 1
EndSplineSet
Refer: 2081 9906 N 1 0 0 1 0 0 2
EndChar
StartChar: uni266D
Encoding: 9837 9837 2064
Width: 309
UnlinkRmOvrlpSave: 1
Flags: HW
LayerCount: 2
Fore
SplineSet
165 307 m 3
 223.198242188 307 267 270.666992188 267 198 c 3
 267 77.4228515625 54 -11 54 -11 c 1
 54 26 l 1
 106.595018867 49.6201171875 193 106.356445312 193 201 c 3
 193 228.200195312 177.770078125 269 151 269 c 3
 119.181640625 269 76 217 76 217 c 1
 65 243 l 1
 65 243 123.333007812 307 165 307 c 3
EndSplineSet
Refer: 757 58113 N 0 -0.749 0.9375 0 69 770 2
EndChar
StartChar: uni26B2
Encoding: 9906 9906 2081
Width: 500
UnlinkRmOvrlpSave: 1
Flags: HMW
LayerCount: 2
Fore
SplineSet
274 96 m 1
 274.59375 -80.6616541353 275.1875 -124.330827068 293 -168 c 1
 293 -188 l 1
 207 -188 l 1
 207 -168 l 1
 226.8 -121 226.8 -97 229 96 c 1
 274 96 l 1
EndSplineSet
Refer: 2080 9898 N 1 0 0 1 0 0 2
EndChar
StartChar: uni27E6
Encoding: 10214 10214 2083
Width: 289
UnlinkRmOvrlpSave: 1
Flags: HW
LayerCount: 2
Fore
SplineSet
83 675 m 1
 83 -188 l 1
 262 -197 l 1
 262 -230 l 1
 37 -230 l 1
 37 717 l 1
 262 717 l 1
 262 685 l 1
 83 675 l 1
EndSplineSet
Refer: 757 58113 N 0 -0.927 0.875 0 160 704 2
EndChar
StartChar: b.pcap
Encoding: 57348 57348 194
Width: 549
Flags: HW
AnchorPoint: "Top" 270 537 basechar 0
AnchorPoint: "Bottom" 278 -15 basechar 0
LayerCount: 2
Fore
SplineSet
74 53 m 1
 116 57 126 55 126 60 c 0
 126 68 126 136 126 214 c 3
 126 326 130 426 128 439 c 0
 127 445 119 446 111 447 c 0
 98 449 81 453 70 456 c 1
 81 510 l 1
 115 505 109 500 168 500 c 3
 215 500 247 508 293 508 c 3
 392 508 455 457 455 376 c 3
 455 327 434 282 402 268 c 1
 463 253 499 207 499 149 c 3
 499 54 407 -2 297 -2 c 3
 251 -2 225 1 173 1 c 3
 106 1 113 -1 78 -3 c 1
 74 53 l 1
306 289 m 0
 371 302 399 328 399 376 c 3
 399 421 371 452 294 452 c 3
 275 452 194 444 187 444 c 0
 184 444 183 430 183 426 c 0
 182 376 183 328 184 288 c 1
 245 288 290 286 306 289 c 0
291 233 m 0
 272 233 205 231 183 231 c 1
 183 159 182 105 183 66 c 0
 183 59 184 57 189 57 c 0
 197 57 266 54 298 54 c 3
 370 54 443 83 443 148 c 3
 443 230 316 233 291 233 c 0
EndSplineSet
EndChar
StartChar: e.pcap
Encoding: 57351 57351 273
Width: 526
Flags: HW
AnchorPoint: "Top" 278 537 basechar 0
AnchorPoint: "Bottom" 281 -15 basechar 0
LayerCount: 2
Fore
SplineSet
82.5478515625 501.801757812 m 1
 128.029731522 499.641601562 213.725998725 498.052734375 292.413085938 498.052734375 c 3
 354.431982083 498.052734375 412.037528046 498.778476589 433.114257812 504.006835938 c 1
 455.946558841 489.434570312 463.008789062 480.116210938 463.008789062 468.404296875 c 3
 463.008789062 451.391678221 445.181256326 430.567083649 445.536132812 387.021484375 c 1
 390.467773438 384.75390625 l 1
 390 428 400.766547549 443.34723051 391.905273438 443.291015625 c 0
 354.162994847 443.05158303 303.323941134 441.911266934 260 442.241210938 c 0
 233.113813521 442.445969225 207.903255205 441.300516995 186.295898438 442.873046875 c 0
 184.17578125 443.02734375 183.415111539 441.041896588 183.411132812 439.00390625 c 0
 183.30988046 388.391264151 183.250543233 325.135624407 183.322265625 277.174804688 c 1
 215.185143524 277.079802139 357.415699264 277 358 277 c 0
 367.085106383 277 364.798205682 290.673332875 374.015625 319.0546875 c 1
 428.084960938 307.688476562 l 1
 420.781071479 280.527618612 417.270507812 257.124619313 417.270507812 232.61328125 c 3
 417.270507812 220.392358911 419.263642332 207.408728985 423.918945312 190.883789062 c 1
 370.196289062 174.918945312 l 1
 363.744208278 200.899026624 365.408818876 221 354 221 c 0
 329.576898387 221 214.526628656 221 183 221 c 1
 182.979999727 150.612054205 183.190432397 109.510509436 183.333007812 62.1201171875 c 0
 183.348777233 57.0105101129 185.812756214 54.851091326 186.112304688 54.857421875 c 0
 222.248123956 55.6211031945 257.521542161 56.3818359375 291.028320312 56.3818359375 c 1
 329.620691616 56.3818359375 367.682211218 56.875841845 399.329101562 56.662109375 c 0
 407.341689708 56.6079950454 409.962408247 62.1907498788 419.783203125 116.875 c 1
 473.477539062 104.475585938 l 1
 466.087690193 55.5435584731 461.417918044 46.0267416055 454.955078125 0.1865234375 c 1
 390.841505457 0.157305014383 323.5305564 0.5205078125 257.572265625 0.5205078125 c 3
 197.48874674 0.5205078125 140.021677741 -1.74857402862 91.9599609375 -12.1259765625 c 1
 82.09765625 43.7119140625 l 1
 110.730809628 48.3798828125 125.330969469 50.6875 127.908203125 50.794921875 c 1
 127.532226562 81.3935679072 127.338867188 169.78329658 127.338867188 268.88671875 c 3
 127.338867188 364.359627948 126.945364313 435.782455772 126.8359375 438.834960938 c 0
 126.660953793 443.716202161 127.034224599 445.126770885 80.486328125 445.833007812 c 1
 82.5478515625 501.801757812 l 1
EndSplineSet
EndChar
StartChar: l.pcap
Encoding: 57358 57358 477
Width: 527
Flags: HW
AnchorPoint: "TopRight" 373.25 350.755 basechar 0
AnchorPoint: "Top" 174 537 basechar 0
AnchorPoint: "Bottom" 272 -15 basechar 0
LayerCount: 2
Fore
SplineSet
240 506 m 1
 245 450 l 1
 166.571428571 435.709090909 164 448.503163969 164 437 c 0
 164 373.630434783 164 91.347826087 164 66 c 1
 165 57.1290322581 166.002119275 54.8710015221 171 55 c 0
 248.487437186 57 380.007597737 55.3150380352 428 54 c 0
 434.344247353 53.8261615135 445 106 450 142 c 1
 503 135 l 1
 504 83 491 78 474 -13 c 1
 454 -8 443.014702703 -2 409 -2 c 0
 398 -2 329 0 249 0 c 3
 79 0 106 -7 59 -7 c 1
 53 47 l 1
 99 55 106.815329833 47.1240564897 107 58 c 0
 107.180305675 68.6189016265 108 137.299363057 108 224 c 3
 108 338.317073171 108 425.346166515 108 439 c 0
 108 444.333333333 96.4565217391 443.166666667 49 450 c 1
 54 506 l 1
 82.9811320755 500 120.113207547 498 150 498 c 3
 179.7 498 213.9 500.4 240 506 c 1
EndSplineSet
EndChar
StartChar: m.pcap
Encoding: 57359 57359 506
Width: 748
Flags: HW
AnchorPoint: "Top" 373 537 basechar 0
AnchorPoint: "Bottom" 371 -15 basechar 0
LayerCount: 2
Fore
SplineSet
729 -11 m 1
 702 -5 669 -1 642 -1 c 3
 619 -1 589 -5 562 -12 c 1
 553 44 l 1
 604.131578948 52.6666666667 620.931292823 49.4661372202 620 57 c 0
 605.3125 175.817204301 590.625 271.336917563 573 382 c 1
 517.628504673 274.149571183 477.821176497 202.851019709 430 102 c 0
 416.628234803 73.8000213667 400.961538462 45 393 11 c 1
 346 11 l 1
 344.684210526 37 336.789473684 53 321 88 c 1
 231.777777778 273.231543624 188.474826389 356.634228188 178 377 c 1
 165.4 276.225352112 150.805257459 163.544651921 136 59 c 0
 134.635961736 49.1331654972 143.68627451 56.2142857143 185 46 c 1
 178 -10 l 1
 159 -4 130 -1 107 -1 c 3
 89 -1 52 -4 33 -12 c 1
 27 44 l 1
 65 55.25 78 51.0673076923 78 59 c 1
 78 61.1520467836 130 422.695906433 130 427 c 1
 130 433.368421053 128.63802384 436.191202414 128 438 c 0
 123.238095238 451.5 107 444.428571429 78 456 c 1
 86 511 l 1
 106.136054422 502 141.87755102 499 160 500 c 1
 183 501 188.560426112 477.898206433 189 477 c 0
 253.038565508 346.146341463 335.994413408 181.192708333 373 107 c 1
 391.623279099 140.271381922 564.249338866 480.498677732 565 482 c 0
 571 494 581.079934237 504.590632079 598 502 c 0
 624.125 498 649.5625 502 675 506 c 1
 682 451 l 1
 641 443.666666667 618.275021992 445.452009436 619 440 c 0
 637.217543861 302.999677319 647.880763914 217.042108757 678 58 c 0
 679.809426282 48.4454757522 678 55 733 44 c 1
 729 -11 l 1
EndSplineSet
EndChar
StartChar: q.pcap
Encoding: 57363 57363 655
Width: 594
Flags: HW
AnchorPoint: "Top" 297 537 basechar 0
AnchorPoint: "Bottom" 246 -15 basechar 0
LayerCount: 2
Fore
SplineSet
286 456 m 3
 170.984250595 456 80 370.628337209 80 254 c 3
 80 82.9107531764 206.029310217 45 296 45 c 3
 414.448648152 45 500 122.233182189 500 263 c 3
 500 367.05230666 408.790068595 456 286 456 c 3
407 12 m 1
 457 -54 541.805 -91 616 -91 c 3
 676.754491018 -91 732.179640719 -83.4210526316 794 -43 c 1
 818 -94 l 1
 785 -117 710 -148 616 -148 c 3
 512.787878788 -148 407 -92 354 -10 c 1
 132 -26 24 92.2255639098 24 254 c 3
 24 398 137 512 286 512 c 3
 435 512 556 404 556 263 c 3
 556 138.963714986 495.937984496 45.8902953586 407 12 c 1
EndSplineSet
EndChar
StartChar: r.pcap
Encoding: 57364 57364 673
Width: 583
Flags: HW
AnchorPoint: "Top" 262 537 basechar 0
AnchorPoint: "Bottom" 298 -15 basechar 0
LayerCount: 2
Fore
SplineSet
176.840820312 252.0625 m 1
 201.267578125 249.399884259 247.45703125 244 264 244 c 3
 381.83225132 244 395 336.340899913 395 359 c 3
 395 405.265802338 335.126413662 452 259 452 c 3
 233.9002368 452 177.98479843 442.885675836 178 432 c 0
 178.013106961 422.614249954 177.461914062 301.505111836 176.840820312 252.0625 c 1
69.3681640625 498.584960938 m 1
 101.07421875 497.849609375 127.55078125 497.115234375 153.5546875 497.115234375 c 1
 193.619140625 497.115234375 211.130859375 508.033203125 259.4921875 508.033203125 c 1
 349.01894019 508.033203125 450.60546875 450.951037736 450.60546875 359.408203125 c 3
 450.60546875 284.148505908 406.507869329 233.527584483 361 210 c 1
 434.224489796 82.6050955414 498.959183673 40.8917197452 569 33 c 1
 555.842773438 -20.28515625 l 1
 438.538575344 -13.2213332915 356.943397413 97.3880502317 308 191 c 1
 291.095641858 188.758660809 280.996673228 188.315429688 263.004882812 188.315429688 c 1
 224.376953125 188.315429688 202.698242188 192.909599887 176.840820312 195.958984375 c 1
 176.504882812 149.933828123 176 80.7491527321 176 60 c 0
 176 53.3419518408 193 63 251 45 c 1
 241.670898438 -9.15234375 l 1
 219.166015625 -1.943359375 188.139648438 1.71875 162.985351562 1.71875 c 3
 139.326171875 1.71875 107.78125 -1.916015625 82.6123046875 -9.302734375 c 1
 72 46 l 1
 120 58 119.881835938 49.9970703125 120 62 c 1
 120.024414062 136.470703125 120.981445312 187.008789062 120.981445312 240.99609375 c 3
 120.981445312 303.80859375 122 356 122 437 c 1
 122.000976562 439.581054688 122 442 69.3681640625 442.276367188 c 1
 69.3681640625 498.584960938 l 1
EndSplineSet
EndChar
StartChar: v.pcap
Encoding: 57368 57368 2225
Width: 601
Flags: HW
AnchorPoint: "Top" 311 537 basechar 0
AnchorPoint: "Bottom" 310 -15 basechar 0
LayerCount: 2
Fore
SplineSet
191 504 m 1
 194 448 l 1
 177.263157895 445.5 141 443 141 443 c 0
 141 441.5 141 440 141 440 c 1
 144.617647059 429.442906574 292 141 305 101 c 1
 331.174496644 175.899696049 426.812080537 378.367781155 455 434 c 1
 456 437 458.996789759 441.865992031 452 442 c 0
 439.209929437 442.244965396 426 443 411 448 c 1
 412 504 l 1
 433 497 459 498 489 498 c 3
 516 498 545 502.909090909 559 506 c 1
 567 451 l 1
 552 447.1 530.625 444.466666667 522 444 c 1
 510.558214286 418.059299191 384.39100776 167.879123515 345 43 c 0
 338.718646056 23.0865725545 335 10 330 -9 c 1
 286 -10 l 1
 279 15 280.910809997 10.9663260125 270 40 c 0
 238.508287293 123.799472296 151.201783245 290.619595597 80 437 c 0
 75.0309252129 447.215687637 66.4680851064 443.611111111 27 454 c 1
 38 508 l 1
 67.0340909091 502 92.75 498 111 498 c 3
 134.13253012 498 157.265060241 501 191 504 c 1
EndSplineSet
EndChar
StartChar: uni0223.pcap
Encoding: 57520 57520 1015
Width: 494
Flags: HW
LayerCount: 2
Fore
SplineSet
201.922851562 388.557617188 m 1
 189.237636201 388.557617188 175.053710938 367.12890625 175.053710938 349.380859375 c 3
 175.053710938 305.411655577 218.455057766 284.135017425 263.932617188 279.055664062 c 0
 360.270507812 268.295759728 442 207.26970959 442 142.063476562 c 3
 442 52.4619140625 358.091796875 -7 246.676757812 -7 c 3
 147.864257812 -7 56 39.9541015625 56 128.516601562 c 3
 56 202.696029683 141.149362004 258.326929369 216.999998039 273.571245354 c 0
 225.821112935 275.344096181 234.516465102 276.570729493 242.9375 277.216796875 c 0
 289.659781917 280.801361327 318.522460938 315.854144074 318.522460938 348.52734375 c 3
 318.522460938 374.986328125 305.46143802 422.008789062 274.171875 427.73828125 c 1
 279.828125 450 l 1
 332.31711368 448.134765625 391.098632812 422.918945312 391.098632812 360.733398438 c 3
 391.098632812 317.106076574 346.018285115 277.564687858 284.000002802 263.338137455 c 0
 274.85999632 261.241485338 265.352103219 259.694663558 255.56640625 258.765625 c 0
 195.93973911 253.104763742 135.202148438 204.245705616 135.202148438 150.86328125 c 3
 135.202148438 88.6657193352 185.790043558 25.1767578125 259.826171875 25.1767578125 c 3
 350.25823312 25.1767578125 360.676757812 95.7671928318 360.676757812 126.065429688 c 3
 360.676757812 186.537151606 316.049813687 247.631000744 241.27734375 254.791992188 c 0
 162.632066816 262.323884014 98.458984375 294.242952307 98.458984375 333.506835938 c 3
 98.458984375 375.732421875 155.176699471 410.374023438 198.346679688 410.374023438 c 1
 201.922851562 388.557617188 l 1
EndSplineSet
EndChar
StartChar: phi.pcap
Encoding: 57536 57536 640
Width: 518
Flags: HW
LayerCount: 2
Fore
SplineSet
241.8515625 350.5546875 m 3
 179.488022386 350.5546875 134.447265625 318.586022352 134.447265625 269.124023438 c 3
 134.447265625 200.524322329 189.131559552 147.78515625 273.478515625 147.78515625 c 3
 340.990000463 147.78515625 378.2109375 184.596262301 378.2109375 234.904296875 c 3
 378.2109375 312.262314973 318.83361238 350.5546875 241.8515625 350.5546875 c 3
264.123046875 418 m 3
 382.979857217 418 475 340.994433902 475 252.321289062 c 3
 475 157.885449608 387.911857408 81 259.671875 81 c 3
 123.065875347 81 39 164.956474108 39 240.321289062 c 3
 39 340.398197 142.97473535 418 264.123046875 418 c 3
EndSplineSet
Refer: 415 57355 N 0.909091 0 0 1 83.455 0 2
EndChar
StartChar: uni1E9E.pcap
Encoding: 57620 57620 1532
Width: 613
Flags: HW
LayerCount: 2
Fore
SplineSet
366 383 m 1
 344.355174228 390.369957837 320.297351962 393.014648438 302.822265625 393.014648438 c 3
 257.423137452 393.014648438 221.799247482 381.497771118 196.000128388 361.0945739 c 0
 162.238217671 334.394014075 145.301757812 292.475151386 145.301757812 241.233398438 c 0
 145.301757812 224.6205311 147.664027657 71.465000328 147.860351562 67.8408203125 c 0
 150.454593739 19.9505716539 166.271009111 18.2092666311 206.655273438 12.9853515625 c 1
 203.875 -10.0751953125 l 1
 151.136305255 -5.9794921875 64.5402414073 -5.9794921875 25.474609375 -10.0751953125 c 1
 22 15.3251953125 l 1
 68.5133792917 23.4839553171 75.3203125 23.2030376109 75.3203125 66.0859375 c 0
 75.3203125 73.7940893551 73.845703125 233.625719486 73.845703125 249.04296875 c 3
 73.845703125 303.746201561 106.194176319 355.160895863 159.99999567 387.485522385 c 0
 195.732684786 408.952453736 240.928811241 422 292.3984375 422 c 3
 366.684570312 422 429.2265625 399.014648438 470.986328125 378.153320312 c 1
 461.953125 358.751953125 l 1
 388.618164062 378.8125 341.041015625 335.203125 341.041015625 295.053710938 c 3
 341.041015625 260.562332524 373.554020873 254.630077245 434 237 c 0
 530 209 557 161.639635854 557 106.056640625 c 3
 557 59.1215634756 521.973727701 -6 399.700195312 -6 c 3
 368.486374121 -6 335.569969287 -3.22206140278 307.194335938 7.3798828125 c 0
 293.947233929 12.3293771472 290.991210938 10.3450600861 287.041992188 -3.490234375 c 1
 264.805664062 -0.150390625 l 1
 265.25082599 42.3498638177 263.915965434 53.4368420119 252.348632812 119.341796875 c 1
 275.974609375 122.8515625 l 1
 284.217214464 90.6959408386 293.016846197 81.3021902715 306.940429688 68.3505859375 c 0
 330.435041569 46.4960886891 382.008215071 25.1552734375 418.682617188 25.1552734375 c 3
 470.196864247 25.1552734375 491.408203125 61.2827235712 491.408203125 89.111328125 c 3
 491.408203125 147.703499743 419.529375464 167.406570069 386 177 c 0
 366.116506556 182.689068123 272.229492188 205.260662942 272.229492188 285.428710938 c 3
 272.229492188 323.480823534 304 369.865384421 366 383 c 1
EndSplineSet
Substitution2: "salt-1" germandbls.pcap
EndChar
StartChar: c.smcp
Encoding: 57673 57673 209
Width: 593
Flags: HW
AnchorPoint: "Top" 326 580 basechar 0
AnchorPoint: "Bottom" 324 -15 basechar 0
LayerCount: 2
Fore
SplineSet
29.69 258.41 m 3
 29.69 410 132.15 563.31 328.47 563.31 c 3
 386.95 563.31 411.16 555.24 461.2 540.42 c 0
 487.32 532.71 488.04 532.49 500.68 545.86 c 1
 551.49 522.83 l 1
 535.9 485.84 536.87 476.14 539.41 422.51 c 0
 541.19 386.53 521.95 379.33 480.18 378.29 c 1
 467.04 414.62 467.15 451.38 458.83 456.73 c 0
 414.91 485.98 382.4 498.2 329.32 498.2 c 3
 208.06 498.2 119.34 412.6 119.34 263.98 c 3
 119.34 114.38 243.08 50.91 343.71 50.91 c 3
 429.22 50.91 484.39 89.21 504.34 174.96 c 1
 562.41 160.04 l 1
 559.14 116.11 542.57 83.55 530.97 44.92 c 1
 473.94 14.73 423.67 -14.65 346.03 -14.65 c 3
 156.01 -14.65 29.69 95.15 29.69 258.41 c 3
EndSplineSet
EndChar
StartChar: k.smcp
Encoding: 57681 57681 468
Width: 632
Flags: HW
AnchorPoint: "Top" 315 580 basechar 0
AnchorPoint: "Bottom" 319 -15 basechar 0
LayerCount: 2
Fore
SplineSet
380.57 557.1 m 1
 395.84 553.8 410.12 551.8 423.7 551.8 c 3
 458.37 551.8 492.52 555 531.59 563.2 c 1
 545.11 502.51 l 1
 506.81 494.28 495.82 493.79 479.32 479.27 c 0
 415.08 422.05 327.05 350.75 258.42 289.11 c 1
 526.37 72.85 l 1
 552.76 54.97 571.12 57.16 599.88 46.59 c 1
 591.58 -8.11 l 1
 563.92 -4.11 536.06 0.19 504.7 0.19 c 3
 457.3 0.19 438.47 -2.63 397.79 -6.75 c 1
 388.12 51.84 l 1
 395.08 52.55 414.64 55.98 419.77 57.67 c 1
 404.81 68.65 274.8 173.15 193.88 240.59 c 1
 193.62 180.91 194.07 106.88 194.81 69.48 c 0
 194.81 59.13 205.22 60.64 245.58 56.54 c 1
 238.65 -6.45 l 1
 208.28 -2.03 183.33 0.19 153.1 0.19 c 3
 127.7 0.19 98.9 -1.11 64.5 -5.41 c 1
 59.2 58.81 l 1
 99.19 61.4 110.84 58.7 110.84 62.26 c 0
 111.41 121.76 113.18 231.07 113.18 322.2 c 3
 113.18 385.28 115.4 423 112.43 481.09 c 0
 111.62 497.31 109.32 489.05 57.02 497.17 c 1
 67.8 560.59 l 1
 99.46 554.29 128.52 551.29 157.48 551.29 c 3
 184.11 551.29 210.27 555.18 238.05 560.33 c 1
 245.35 496.77 l 1
 218.37 492.33 207.4 492.58 202.08 488.18 c 1
 201.04 428.94 196.16 371.98 195.69 312.33 c 1
 253.51 365.51 328.54 428.44 386.15 480.57 c 0
 392.28 486.44 393.96 489.05 395.05 491.01 c 0
 395.05 491.71 386.57 494.05 376.57 495.51 c 1
 380.57 557.1 l 1
EndSplineSet
EndChar
StartChar: t.smcp
Encoding: 57690 57690 740
Width: 590
Flags: HW
AnchorPoint: "Top" 302 580 basechar 0
AnchorPoint: "Bottom" 302 -15 basechar 0
LayerCount: 2
Fore
SplineSet
111.64 553.3 m 0
 219.09 554 333.25 552 445.4 552 c 3
 470.05 552 494.58 552.26 518.17 552.7 c 0
 529.21 552.7 534.68 565.61 541.72 577 c 1
 595.34 545.83 l 1
 580.09 511.85 561.01 462.32 561.88 420.95 c 1
 492.69 433.54 l 1
 492.59 440.59 501.29 480.78 503 486.94 c 1
 467.22 486.49 398.79 487.36 342.2 487.99 c 1
 341.83 391.37 339.86 263.99 339.86 185.8 c 3
 339.86 149.84 339.97 98.48 340.74 77.38 c 0
 341.13 61.72 353.82 70.09 422.2 60.19 c 1
 413.86 -9.92 l 1
 389.38 -1.62 337.2 0.38 303.23 0.38 c 3
 255.29 0.38 214.46 -4.01 181.77 -13.41 c 1
 169.69 58.13 l 1
 221.74 66.13 251.22 63.53 251.22 71.99 c 0
 251.41 146.65 252.37 315.85 252.37 427.3 c 3
 252.37 440.79 252.37 477.05 252.56 488.62 c 1
 216.24 487.55 173.11 487.66 127.27 488.35 c 0
 93.07 489.09 97.35 488.83 67.79 427.35 c 1
 1.39 456.5 l 1
 20.56 490.5 48.6 553.13 67.68 586.45 c 1
 84.92 572.61 102.87 553.28 111.64 553.3 c 0
EndSplineSet
EndChar
StartChar: x.smcp
Encoding: 57694 57694 2238
Width: 663
Flags: HW
AnchorPoint: "Top" 334 580 basechar 0
AnchorPoint: "Bottom" 334 -15 basechar 0
LayerCount: 2
Fore
SplineSet
67.9 557.03 m 1
 108.3 553.63 139.4 551.63 161.5 551.63 c 3
 189.99 551.63 212.21 552.93 255.16 558.53 c 1
 257.79 495.72 l 1
 249.03 492.53 231.98 490.76 227.07 489.6 c 0
 225.88 488.9 226.44 485 228.1 483 c 1
 229.44 481.85 334.26 346.59 336.36 344.6 c 1
 343.92 356.24 414.54 456.59 427.52 476.56 c 0
 429.03 478.77 431.72 485.46 429.52 487.1 c 1
 426.22 488.93 406.56 490.19 398.25 495.45 c 1
 406.63 557.56 l 1
 432.63 552.56 455.23 551.26 478.13 551.26 c 3
 505.42 551.26 533.52 554.26 565 559.86 c 1
 571 496.49 l 1
 514.81 486.36 510.3 485.89 495.36 464.65 c 0
 491.74 459.55 468.94 427.39 374.64 294.7 c 1
 384.94 279.76 525.77 101.86 537.68 84.71 c 1
 552.27 65.29 564.21 64.31 606.79 56.56 c 1
 595.3 -8.52 l 1
 571.5 -2.22 544.1 0 516.1 0 c 3
 478.38 0 439.35 -2.66 409.68 -8.56 c 1
 404.35 54.96 l 1
 415.36 57.45 434.34 58.51 440.62 59.86 c 0
 447.86 61.61 447.82 65.57 445.42 68.76 c 0
 386.68 148.62 339.07 214.29 325.01 232.14 c 1
 289.07 182.67 237.42 105.84 213.64 71.12 c 1
 211.61 68.05 212.76 63.35 218.63 62.52 c 0
 228.23 61.02 245.27 60.04 251.37 58.22 c 1
 249.04 -5.92 l 1
 213.04 -1.92 184.81 0 156 0 c 3
 129.3 0 101.9 -1.62 68.5 -7.22 c 1
 65.28 56.53 l 1
 112.31 65 117.18 62.85 132.28 77.98 c 0
 135.78 81.7 171.62 131.86 285.98 282.36 c 1
 143.36 461.93 130.91 481.03 121.73 486.76 c 0
 113.54 491.61 93.39 490.51 66.9 494.61 c 1
 67.9 557.03 l 1
EndSplineSet
EndChar
StartChar: z.smcp
Encoding: 57696 57696 2258
Width: 593
Flags: HW
AnchorPoint: "Top" 310 579 basechar 0
AnchorPoint: "Bottom" 296 -15 basechar 0
LayerCount: 2
Fore
SplineSet
29.86 440.02 m 1
 49.61 481.41 55.4 576.02 108.41 587.36 c 1
 121.55 573.37 137.34 553.09 139.8 553.08 c 0
 180.99 552.24 417.55 551.26 499.31 552.47 c 0
 512.89 552.47 522.44 553.32 530.1 553.32 c 1
 556.95 509.65 l 1
 557.25 508.95 554.61 506.57 553.75 505.75 c 0
 540.87 492.53 192.6 70.44 183.3 66.6 c 1
 281.76 66.6 375.26 68.35 435.41 69.6 c 0
 474.64 70.15 478.31 72.51 507.4 150.89 c 1
 570.29 122.65 l 1
 540.18 52.45 525.81 9.07 499.68 -27.23 c 1
 471.48 -9.49 472.68 2.9 402.75 1.19 c 0
 316.33 -1.13 101.57 0.53 54 -6.04 c 1
 34.6 48.52 l 1
 68.67 66.17 96.11 91.52 122.68 118.91 c 1
 223.97 233.69 325.31 363.9 425.98 483.3 c 1
 428.28 486.6 l 1
 401.18 485.84 142.24 485.41 128.23 484.78 c 1
 116.95 480.41 112.58 471.77 94.52 421.43 c 1
 29.86 440.02 l 1
EndSplineSet
EndChar
StartChar: uhorn.smcp
Encoding: 57793 57793 812
Width: 673
Flags: HW
AnchorPoint: "Bottom" 348 -15 basechar 0
AnchorPoint: "Top" 358 580 basechar 0
LayerCount: 2
Fore
SplineSet
634.46 483.41 m 1
 613.83 482.01 596.3 487.33 596.3 476.68 c 0
 596.3 465.02 599.35 375.28 596.6 212.78 c 0
 595.58 148.48 571.52 98.08 538.1 61.68 c 0
 493.8 12.96 429.6 -11.6 354.9 -11.6 c 0
 257.8 -11.6 192.32 16.55 148.8 64.99 c 0
 116.82 100.42 103.75 146.12 100 200.09 c 0
 98 229.39 95.67 466.38 95.3 477.85 c 0
 95.1 486.35 79.9 488.45 47.5 492.05 c 1
 54.5 558.97 l 1
 78.3 554.67 115.6 552.67 153.2 552.67 c 0
 182.43 552.67 212.59 554.67 234.34 557.97 c 1
 242.22 494.13 l 1
 206.41 487.94 195.79 485.67 195.9 476.19 c 0
 196.01 462.4 192.18 342.17 201.7 217.59 c 0
 204.17 180.11 206.04 149.21 225.38 125.68 c 0
 252.6 90.57 289.2 69.24 377.73 69.24 c 0
 395.68 69.24 446.15 76.88 482.23 118.86 c 0
 501.59 140.56 512.12 167.55 515.79 212.08 c 0
 521.72 279.87 517.98 434.41 517.79 480.9 c 0
 517.79 486.88 505.31 488.77 472.8 491.8 c 1
 474.8 558.6 l 1
 518.03 555.29 574.15 550.44 625.04 550.44 c 3
 644.14 550.44 668.49 558.93 668.49 579.98 c 0
 668.49 594.93 660.34 608.76 643.44 626.46 c 1
 663.69 653.76 690.95 668.98 716.88 668.98 c 0
 760.78 668.98 785.81 633.97 785.81 595.96 c 0
 785.81 525.14 702.52 482.21 634.46 483.41 c 1
EndSplineSet
EndChar
StartChar: question.smcp
Encoding: 57798 57798 659
Width: 349
Flags: HW
LayerCount: 2
Fore
SplineSet
48.87 477.79 m 1
 50.34 490.69 51.05 501.9 51.05 512.06 c 3
 51.05 556.48 33.83 575.32 33.83 584.09 c 3
 33.83 590.76 46.1 594.99 86.26 598.55 c 1
 102.88 562.48 113.08 562.48 136.51 562.48 c 3
 227.86 562.48 333.13 506.44 333.13 406.78 c 3
 333.13 287.88 250.28 267.72 219.69 261.52 c 0
 198.67 254.77 190.18 234.75 189.97 193.17 c 1
 189.97 193.17 154.33 191.23 132.84 191.23 c 1
 129.47 211.37 126.5 236.8 126.62 260.59 c 0
 126.88 295.1 139.69 321.85 167.19 333.15 c 0
 192.52 348.05 275.45 326.28 275.45 400.09 c 3
 275.45 445.35 215.8 480.64 102.8 480.64 c 0
 85.71 480.64 67.62 479.67 48.87 477.79 c 1
EndSplineSet
Refer: 635 46 N 1 0 0 1 53.7541 0 2
EndChar
StartChar: uni0195.smcp
Encoding: 57822 57822 842
Width: 916
Flags: HW
LayerCount: 2
Fore
SplineSet
536.808203125 162.402832031 m 1
 536.808203125 83.7452577078 566.43646334 28.1 648.4 28.1 c 1
 732.510946398 28.1 770.47268638 63.160551407 773.2 149.2 c 1
 774.769452798 208.228588745 772.9 290.091644905 772.2 344.1 c 1
 770.8 381.558230162 748.461322933 379.313867707 709.6 381.1 c 1
 711.5 408.8 l 1
 735.872285095 405.463965443 771.448190063 402.8492527 808.117462934 402.8492527 c 1
 836.923481626 402.8492527 865.832198703 405.104051835 882.1 408.2 c 1
 884.4 380.1 l 1
 850.463799246 378.129781681 831.841274494 378.70678698 828 344.7 c 0
 823.8 328.482606399 820 273.74605327 819.3 158.1 c 1
 819.3 42.1978570808 723.771487653 -16.5 621.6 -16.5 c 1
 519.375245792 -16.5 464.334850297 44.6979665722 465.9 145 c 1
 466.10234375 153.498054369 465.5 155.923773951 466.5 230.1 c 1
 182.2 230.1 l 1
 181.2 171.098888715 180.649699956 106.997879123 183.9 59.4 c 0
 185.2 26.2 221.1 28.1 243.3 21.8 c 1
 243.3 21.8 240 3 239.7 -6.1 c 1
 204.007612452 0.154944980827 168.766131418 3.54679724664 135.155366416 3.54679724664 c 0
 105.313490725 3.54679724664 76.7563747346 0.88378124999 50.5 -4.8 c 1
 50.5 -4.8 46.9 15 45.6 26.7 c 1
 69.7 32 97.6010082901 32.0101985087 100.2 60.1 c 0
 106.592035428 135.524459054 110.295958228 248.146482965 110.295958228 331.112817812 c 0
 110.295958228 385.681513369 108.692653328 427.419804968 105.2 437.3 c 0
 99.6 460.7 76 461.4 49.2 465 c 1
 51.5 493.9 l 1
 91.6880056332 489.809642149 127.188509147 486.53150249 165.462832206 486.53150249 c 0
 190.449656339 486.53150249 216.650977119 487.918199837 246.2 491.3 c 1
 248.2 463.4 l 1
 231 460.1 195.245319488 459.378224968 192.4 445.8 c 1
 187.1 420.696972657 185.9 333.404296875 183.9 261.7 c 1
 466.5 262.4 l 1
 466.5 307.152636719 465.806491709 358.416252067 463.6 423.4 c 0
 461.9 459 434.1 457 405.7 466.9 c 1
 409.3 493.2 l 1
 437.647217518 488.153425621 463.803346364 485.24344048 490.298462559 485.24344048 c 0
 521.005730824 485.24344048 552.179096202 489.144697722 587.4 498.1 c 1
 592 470.2 l 1
 559.1 461.7 550.141842851 460.203951828 547.5 433.6 c 0
 538.339736862 337.250300852 536.808203125 209.72456416 536.808203125 162.402832031 c 1
EndSplineSet
EndChar
StartChar: delta.smcp
Encoding: 57853 57853 260
Width: 544
Flags: HW
LayerCount: 2
Fore
SplineSet
336.311425781 49.818359375 m 1
 381.144824219 49.9780273438 396.71484375 49.818359375 398.225390625 54.084765625 c 1
 360.735058594 141.725195312 291.044238281 290.402734375 259.65 367.539941406 c 1
 245.406542969 343.613378906 140.155371094 140.288769531 107.962011719 61.19453125 c 1
 115.2515625 52.6624023438 119.237890625 48.7447265625 185.953027344 49.818359375 c 1
 336.311425781 49.818359375 l 1
24.6 -5 m 1
 31.0184570313 17.966015625 50.6122070313 40.2584960937 58.5770507813 55.4364257813 c 0
 136.557324219 204.039550781 199.879199219 332.733691406 256.401269531 453.606542969 c 0
 268.832617188 480.191015625 265.4625 481.336132813 268.481542969 504.8 c 1
 300.949414063 504.8 l 1
 304.724414062 485.602539062 300.7984375 482.706738281 311.519824219 455.02890625 c 0
 373.489257813 295.049609375 410.333691406 198.350097656 495.752539062 42.637890625 c 0
 511.499511719 13.9327148438 513.496679687 21.1651367187 525.2 -4.28916015625 c 1
 502.01369183 -1.26661420465 398.186974255 0.16965966123 290.754972889 0.16965966123 c 0
 170.722044687 0.16965966123 46.1884904411 -1.6232973108 24.6 -5 c 1
EndSplineSet
EndChar
StartChar: xi.smcp
Encoding: 57856 57856 2241
Width: 531
Flags: HW
LayerCount: 2
Fore
SplineSet
52.1806640625 353.741503906 m 1
 56.4252929688 410.576757813 57.3364257812 450.579882813 56.0600585938 498.5 c 1
 70.0236778753 492.627856918 173.635152085 489.400234046 274.273344355 489.400234046 c 3
 369.176822407 489.400234046 461.436219833 492.270491861 473.37890625 498.5 c 1
 471.132128906 445.845996094 472.739746094 392.137988281 479.819335938 350.175683594 c 1
 449.913964844 346.609863281 l 1
 449.913964844 383.7484375 451.775 419.030664063 420.75703125 420.268457031 c 0
 378.670478366 423.57975957 323.219466155 425.199720881 268.806497273 425.199720881 c 3
 206.04011881 425.199720881 144.654966432 423.044185876 106.757128906 418.842675781 c 0
 85.5091796875 416.39375 87.2798828125 383.334960938 84.3286132812 350.888574219 c 9
 52.1806640625 353.741503906 l 1
487.2 146.229492188 m 1
 476.412792969 85.7549804689 474.095214844 43.1892578125 477.339941406 -7.8 c 1
 463.175985274 -1.92785691845 358.079667787 1.29976595381 255.99928238 1.29976595381 c 3
 159.735792373 1.29976595381 66.1543109141 -1.57049186117 54.0404296875 -7.8 c 1
 56.2865234375 48.1451171875 54.6798828125 105.209082031 47.6 149.7953125 c 1
 77.5046875 153.360449219 l 1
 77.5046875 112.605957031 75.262109375 73.8896484375 112.64296875 72.5315429688 c 0
 154.729521634 69.2202404303 210.180533845 67.6002791186 264.593502727 67.6002791186 c 3
 327.35988119 67.6002791186 388.745033568 69.7558141241 426.642871094 73.9573242188 c 0
 453.557226562 76.664453125 451.313964844 113.211914062 455.052050781 149.081738281 c 9
 487.2 146.229492188 l 1
414.8640625 326.999902344 m 1
 413.326953125 286.218066406 413.682226562 216.461425781 418.602148437 172.970410156 c 9
 401.407226562 171.544628906 l 1
 393.298632812 214.499414062 387.21640625 213.78359375 366.268945313 218.079394531 c 0
 359.540527344 218.792285156 307.955078125 223.0703125 271.321289062 223.0703125 c 27
 230.20234375 223.0703125 172.635546875 219.505175781 165.159375 218.079394531 c 0
 144.322460938 214.213476563 142.779882813 196.169238281 141.236035156 172.970410156 c 9
 121.797851562 173.683984375 l 1
 126.640234375 227.046386719 127.24765625 276.32109375 121.797851562 329.852148437 c 9
 140.48828125 331.277929687 l 1
 143.561914062 312.844726562 145.098730469 297.204199219 168.149707031 290.501269531 c 0
 174.878808594 287.648339844 192.073730469 283.3703125 271.321289062 283.3703125 c 3
 344.588183594 283.3703125 360.28828125 286.221875 364.774121094 286.935449219 c 0
 388.697460938 290.587304688 394.678808594 288.152050781 397.669140625 327.712792969 c 9
 414.8640625 326.999902344 l 1
EndSplineSet
EndChar
StartChar: sigma.smcp
Encoding: 57858 57858 719
Width: 515
Flags: HW
LayerCount: 2
Fore
SplineSet
53.6671875 -3.54248046875 m 1
 46.5 19.641015625 l 1
 73.8895482181 34.406640625 96.5329357086 60.2821536752 114.622265625 81.5140625 c 0
 159.840234375 134.223339844 205.481835937 187.639453125 250.80078125 241.327441406 c 1
 206.304882813 297.092533691 155.184362451 362.884436045 111.017871094 416.385546875 c 0
 92.235926153 439.079296875 72.5492700361 461.383691406 52.35078125 466.094628906 c 1
 55.934375 489.990722656 l 1
 108.201122572 487.428384445 170.230989114 486.453488003 228.873614651 486.453488003 c 0
 331.148564737 486.453488003 423.120653878 489.418798415 435.030078125 492.1 c 1
 443.043643277 483.020049338 445.994447116 478.355568004 445.994447116 471.620934445 c 0
 445.994447116 459.289193541 436.083570556 439.979233488 429.330175781 374.023535156 c 1
 405.728613281 371.214257813 l 1
 400.284891876 393.144866973 409.380678807 430.482191217 379.4 443.1 c 1
 350.014188365 453.457786823 306.916459828 457.430759873 264.050885477 457.430759873 c 0
 235.406238429 457.430759873 206.334994622 455.232667425 180.940625 452.884179688 c 1
 225.71640625 397.833300781 270.154060152 342.72833291 315.043652344 287.731542969 c 0
 323.758203125 277.074121094 335.98671875 263.826171875 347.726367187 258.201660156 c 1
 347.726367187 238.51484375 l 1
 335.879003906 233.00390625 326.119028337 223.79665552 319.745800781 216.016113281 c 0
 267.884744763 152.266482511 217.338751597 95.261799982 166.1 34.7 c 1
 203.984166314 34.7 242.334738882 32.7 280.3 32.7 c 0
 304.216997253 32.7 335.754279614 35.1634480868 375.525976562 54.0344726563 c 0
 410.246808087 70.2588646997 423.63829874 89.5335150825 450.831738281 137.002929688 c 1
 473 131.381054688 l 1
 460.957858529 79.26910202 452.678793458 46.1074786544 443.647558594 -2.8451171875 c 1
 348.228165724 -1.7571254145 262.788159807 0.440747125316 185.63473362 0.440747125316 c 0
 137.656734915 0.440747125316 93.6371114861 -0.607814778318 53.6671875 -3.54248046875 c 1
EndSplineSet
EndChar
StartChar: circumcombhigh
Encoding: 58081 58081 231
Width: 0
Flags: HW
LayerCount: 2
Fore
SplineSet
-63.2197265625 476.559570312 m 1
 -93.3955078125 430.319335938 l 1
 -197.5 498.506835938 l 1
 -301.603515625 430.319335938 l 1
 -331.780273438 476.559570312 l 1
 -207.364257812 559.680664062 l 1
 -187.635742188 559.680664062 l 1
 -63.2197265625 476.559570312 l 1
EndSplineSet
EndChar
StartChar: Cedillafloating
Encoding: 58085 58085 2315
Width: 0
Flags: HW
AnchorPoint: "Bottom" -193 -15 mark 0
LayerCount: 2
Fore
SplineSet
-283.112304688 -170.84375 m 1
 -279.392578125 -118.880859375 l 1
 -224.037109375 -127.751953125 -174 -110.34765625 -174 -100 c 3
 -174 -92.2626953125 -198.87890625 -81.1025390625 -221.641601562 -89.1416015625 c 1
 -240 -36 l 1
 -197 -18.927734375 -117.03125 -38.0986328125 -117.03125 -99.708984375 c 3
 -117.03125 -167 -208 -186 -283.112304688 -170.84375 c 1
EndSplineSet
EndChar
StartChar: hairrule
Encoding: 58112 58112 403
Width: 1000
Flags: HW
LayerCount: 2
Fore
SplineSet
0 -28 m 1
 0 28 l 1
 1000 28 l 1
 1000 -28 l 1
 0 -28 l 1
EndSplineSet
EndChar
StartChar: thinrule
Encoding: 58113 58113 757
Width: 1000
Flags: HW
LayerCount: 2
Fore
SplineSet
0 -28 m 1
 0 28 l 1
 1000 28 l 1
 1000 -28 l 1
 0 -28 l 1
EndSplineSet
EndChar
StartChar: one.smaller
Encoding: 58359 58359 596
Width: 261
Flags: HW
LayerCount: 2
Fore
SplineSet
51.5517578125 272.82421875 m 1
 63.3290458545 271.936103389 79.4379283256 271.434218769 97.1804988866 271.434218769 c 0
 136.249731444 271.434218769 183.240434727 273.867770405 209.346679688 279.969726562 c 1
 210.58984375 223.599609375 l 1
 172.138671875 220.41015625 160 218 158 213 c 0
 155.458007812 206.64453125 157.2890625 163.966796875 157.2890625 138.087890625 c 3
 157.2890625 107.815429688 156.747070312 64.8349609375 158.743164062 62.05859375 c 0
 162.114257812 57.3701171875 189.508789062 57.1015625 213.797851562 56.755859375 c 1
 212.931640625 0 l 1
 186.880417392 2.0724163269 157.235337026 3.21189414538 127.342442883 3.21189414538 c 0
 99.1583152635 3.21189414538 70.7538956511 2.19896482978 44.93359375 0 c 1
 43.2021484375 56.0625 l 1
 62.744140625 56.9853515625 97 58 99.427734375 61.47265625 c 0
 101.494140625 64.4287109375 101.887695312 82.1025390625 101.887695312 138.087890625 c 3
 101.887695312 193.926757812 102 210 98 213 c 0
 93.73046875 216.202148438 88.98046875 216.029296875 50.814453125 216.525390625 c 1
 51.5517578125 272.82421875 l 1
EndSplineSet
EndChar
StartChar: two.smaller
Encoding: 58360 58360 783
Width: 319
Flags: HW
LayerCount: 2
Fore
SplineSet
18.1416015625 212.2265625 m 1
 42.89453125 247.806640625 78.052734375 276.796875 131.422851562 276.796875 c 3
 190.646484375 276.796875 235.75390625 236.090820312 235.75390625 185.977539062 c 3
 235.75390625 128.215820312 144 87 114 57 c 1
 172.8984375 57.4833984375 199.4609375 56.64453125 212 55 c 1
 214 60 232 80 243.75 94.00390625 c 1
 284.967773438 54.560546875 l 1
 284.967773438 54.560546875 242.09375 14.37890625 240.006835938 -9.556640625 c 1
 217.931640625 1.251953125 177.700195312 1.3125 130.135742188 1.3125 c 1
 81.328125 1.3125 36.02734375 0.2646484375 32.0234375 -0.41796875 c 1
 15.560546875 55.921875 l 1
 39.8203125 75.6884765625 179 165.900390625 179 186 c 3
 179 213.528320312 150.141601562 220 131 220 c 3
 100.572265625 220 80.2685546875 202.350585938 66 180 c 1
 18.1416015625 212.2265625 l 1
EndSplineSet
EndChar
StartChar: four.tabulartext
Encoding: 58372 58372 360
Width: 533
Flags: HW
LayerCount: 2
Fore
SplineSet
353 58 m 1
 353 183.401696596 353 287.229212254 351 372 c 1
 351 372 208.042769499 183.244324327 115 62 c 1
 184.438288161 58 297.29122292 58 353 58 c 1
422.108398438 485.17578125 m 1
 413.255738347 450.439619052 407.276488878 416.969159439 406.897460938 223.267578125 c 0
 406.790559003 142.514832277 407.624277934 151.745944 408.193359375 58.39453125 c 1
 461.352814876 57.5474495138 468.586270064 52.6197732537 484.87890625 102.48046875 c 1
 484.87890625 102.48046875 526.503169428 85.833466249 530.077148438 83.841796875 c 1
 530.077148438 83.841796875 513.31202648 28.2548375472 503.060546875 -8.634765625 c 1
 476.776075136 -0.279416755379 472.454681458 1.98720714906 408.193359375 2.1435546875 c 1
 407.879536218 -104.646728703 409.937300856 -105.347767211 418.4140625 -119.715820312 c 1
 394.05115661 -125.654259315 383.213907021 -160.214622629 372 -177.099609375 c 1
 372 -177.099609375 328.132420985 -142.959655092 326.409179688 -138.801757812 c 1
 350.772511591 -101.554242458 352.767413651 -117.792873042 352.952148438 1.044921875 c 1
 14.0365836743 1.044921875 81.0540797099 8.4529602769 37.1083984375 -28.75390625 c 1
 37.1083984375 -28.75390625 -0.9385137887 4.56362320729 -3.494140625 7.71484375 c 1
 15.7389067393 27.6921497299 348.032518835 444.968912515 375.126953125 513.017578125 c 1
 422.108398438 485.17578125 l 1
EndSplineSet
Substitution2: "pnum-1" four
Substitution2: "lnum-1" four.tabularlining
Substitution2: "numr-1" four.numerator
Substitution2: "dnom-1" four.denom
EndChar
StartChar: seven.tabularlining
Encoding: 58385 58385 713
Width: 533
Flags: HW
LayerCount: 2
Fore
SplineSet
150.084960938 644.116210938 m 1
 150.7734375 643.083984375 165.768553749 637.226519377 177.2109375 636.977539062 c 0
 304.490234375 634.208007813 481.168945312 636.028320312 504.037109375 637.927734375 c 1
 504.037109375 637.927734375 519.86328125 598.865234375 523 596 c 1
 497.553542015 556.922977927 215.729834089 28.7254497363 206 -8 c 1
 206 -8 143.84765625 -7.775390625 142.571289062 -7.8427734375 c 1
 234.995511368 184.363437251 325.187349868 346.765280236 441 565 c 0
 450.620117188 583.127929688 450.438474512 579.652750858 429.267578125 579.545898438 c 0
 344.326171875 579.1171875 331.600585938 580.440429688 268.171875 580.440429688 c 3
 134.838867188 580.440429688 142 592 94.0126953125 481.680664062 c 1
 94.0126953125 481.680664062 47.6435546875 506.028320312 43.427734375 507.1484375 c 1
 43.427734375 507.1484375 99.490234375 622.047851562 108.692382812 663.783203125 c 1
 150.084960938 644.116210938 l 1
EndSplineSet
Substitution2: "pnum-1" seven.proportionallining
Substitution2: "onum-1" seven.tabulartext
Substitution2: "numr-1" seven.numerator
Substitution2: "dnom-1" seven.denom
EndChar
StartChar: four.proportionallining
Encoding: 58392 58392 356
Width: 631
Flags: HW
LayerCount: 2
Fore
SplineSet
373 232 m 1
 375 351.810315148 375 451.008540784 375 532 c 1
 375 532 233.279828367 348.115714436 134 230 c 1
 203.729867118 232 317.057312012 232 373 232 c 1
445 634 m 1
 425.259765625 589.943359375 430.939059318 595.806361511 429.897460938 345.267578125 c 0
 429.6696626 290.474560535 430.063476562 296.737304688 430.193359375 233.39453125 c 1
 540.459186887 231 518 224 546.87890625 281.48046875 c 1
 546.87890625 281.48046875 590.344726562 264.833007812 594.077148438 262.841796875 c 1
 594.077148438 262.841796875 571.727539062 198.83984375 558.060546875 156.365234375 c 1
 522.301925481 172.361328125 528.432415264 176.700195312 429 177 c 1
 427.8515625 43.1142578125 424.129882812 63.482421875 466.4140625 25.2841796875 c 1
 418.388671875 17.896484375 423.390625 -25.0947265625 393 -46.099609375 c 1
 393 -46.099609375 349.701171875 -21.05078125 348 -18 c 1
 384 20 372.826171875 -4.5234375 373 176 c 1
 42.2048126835 176 106.040392984 181.94921875 60 140 c 1
 60 140 17.369140625 169.887695312 14.505859375 172.71484375 c 1
 33.828363193 192.051757812 367.670721855 595.956054688 394.891601562 661.82421875 c 1
 445 634 l 1
EndSplineSet
Substitution2: "tnum-1" four.tabularlining
Substitution2: "onum-1" four
Substitution2: "numr-1" four.numerator
Substitution2: "dnom-1" four.denom
EndChar
StartChar: onetenth.afrc
Encoding: 58445 58445 611
Width: 533
Flags: HW
LayerCount: 2
Fore
SplineSet
375.01953125 219.151367188 m 3
 332.80947823 219.151367188 294.540039062 180.0390625 294.540039062 135.115234375 c 3
 294.540039062 90.3291015625 325.231953946 55.8095703125 368.203125 55.8095703125 c 3
 411.771656902 55.8095703125 444 87.1845703125 444 135.481445312 c 3
 444 183.166015625 412.448181743 219.151367188 375.01953125 219.151367188 c 3
375.01953125 275.151367188 m 3
 443.382322684 275.151367188 500 213.850585938 500 135.481445312 c 3
 500 50.98046875 436.302443735 -0.1904296875 368.203125 -0.1904296875 c 3
 298.011963828 -0.1904296875 238.540039062 56.1728515625 238.540039062 135.115234375 c 3
 238.540039062 216.9609375 306.74189078 275.151367188 375.01953125 275.151367188 c 3
61.5517578125 270.82421875 m 1
 93.5270069314 267.98046875 163.158626575 269.096679688 195.346679688 277.969726562 c 1
 196.58984375 221.599609375 l 1
 166.912496431 218.41015625 157.543638119 216 156 211 c 0
 153.458007812 204.64453125 155.2890625 161.966796875 155.2890625 136.087890625 c 3
 155.2890625 105.815429688 154.747070312 62.8349609375 156.743164062 60.05859375 c 0
 159.379477055 55.3701171875 180.802956793 55.1015625 199.797851562 54.755859375 c 1
 198.931640625 -2 l 1
 155.548912186 2.0263671875 100.538695115 2.53125 54.93359375 -2 c 1
 53.2021484375 54.0625 l 1
 68.5733720623 54.9853515625 95.5181415545 56 97.427734375 59.47265625 c 0
 99.494140625 62.4287109375 99.8876953125 80.1025390625 99.8876953125 136.087890625 c 3
 99.8876953125 191.926757812 100 208 96 211 c 0
 92.8162752817 214.202148438 89.2742723015 214.029296875 60.814453125 214.525390625 c 1
 61.5517578125 270.82421875 l 1
EndSplineSet
Refer: 2005 8321 N 1 0 0 1 142 496 2
Refer: 757 58113 N 0.469 0 0 0.875 32 342 2
Substitution2: "'zero' Slashed Zero lookup 22-1" onetenth.afrcalt
LCarets2: 3 0 0 0
Ligature2: "'afrc' Nut Fractions lookup 23-1" uni2152
Ligature2: "'afrc' Nut Fractions lookup 23-1" one.numerator fraction one.denom zero.denom
EndChar
StartChar: one.pcap
Encoding: 58519 58519 2584
Width: 485
Flags: HW
LayerCount: 2
Fore
SplineSet
117.524414062 504.12109375 m 1
 131.851493693 503.191072262 149.100471961 502.76171875 167.881835938 502.76171875 c 0
 243.678556555 502.76171875 344.433637953 509.753716677 378.8125 519.05078125 c 9
 378.984375 455.084960938 l 1
 296.46875 453.317382812 294.21875 435.859375 292.806640625 422.62890625 c 0
 289.402343751 383.358398438 289.665039062 313.629882812 289.665039062 247.504882812 c 3
 289.665039062 165.608398438 295.474533498 98.6610539041 302.337890625 75.615234375 c 0
 306.736710409 62.262671857 329.519966497 56.3773913359 380.9296875 54.734375 c 9
 377.154296875 -1.65625 l 1
 340.273870153 -1.36897457222 299.504034877 -1.2109375 253.803710938 -1.2109375 c 0
 210.729065838 -1.2109375 163.274206785 -1.35133676552 110.567382812 -1.65625 c 9
 103.021484375 53.5673828125 l 1
 135.763569642 55.1120197886 190.356523781 68.3104573194 193.157226562 74.8779296875 c 0
 202.020004693 98.0405079719 206.169921875 135.235351562 206.169921875 247.504882812 c 3
 206.169921875 348.026367188 204.9609375 369.470703125 200.547851562 418.208984375 c 0
 198.512695312 437.486328125 184.651367188 441.657226562 115.690429688 447.640625 c 9
 117.524414062 504.12109375 l 1
EndSplineSet
EndChar
StartChar: NameMe.exclam
Encoding: 65537 -1 2391
Width: 216
Flags: HW
LayerCount: 2
Fore
SplineSet
82 162 m 1
 82 252.679310005 82.0576171875 321.258633141 71 388 c 0
 67.3076171875 419.8515625 45.154296875 436.115234375 47 470 c 1
 97.9462890625 475.755859375 163.184570312 505.830078125 168 474 c 1
 153.599609375 449.8125 154.999023438 434.415039062 150 388 c 0
 138.62109375 300.692521738 120 254.594277099 120 161 c 1
 82 162 l 1
EndSplineSet
Refer: 635 46 N 0.929057 0 0 0.987278 8.12874 -1.7082 2
EndChar
